<?xml version="1.0" standalone="no"?>
 <!DOCTYPE svg PUBLIC "-//W3C//DTD SVG 1.1//EN" 
 "http://www.w3.org/Graphics/SVG/1.1/DTD/svg11.dtd"> 
<svg
  xmlns:svg="http://www.w3.org/2000/svg"
  xmlns="http://www.w3.org/2000/svg"
  xmlns:xlink="http://www.w3.org/1999/xlink"
  version="1.1"
  width="29.700220cm" height="21.000720cm" viewBox="0 0 297002200 210007200">
<title>SVG Picture created as gbsc-sync-combiner-v1-3-F_Fab.svg date 2022/06/18 22:25:36 </title>
  <desc>Picture generated by PCBNEW </desc>
<g style="fill:#000000; fill-opacity:1.000000;stroke:#000000; stroke-opacity:1.000000;
stroke-linecap:round; stroke-linejoin:round;"
 transform="translate(0 0) scale(1 1)">
</g>
<g style="fill:#000000; fill-opacity:0.0; 
stroke:#000000; stroke-width:0.000000; stroke-opacity:1; 
stroke-linecap:round; stroke-linejoin:round;">
</g>
<g style="fill:#000000; fill-opacity:0.0; 
stroke:#000000; stroke-width:21200.000000; stroke-opacity:1; 
stroke-linecap:round; stroke-linejoin:round;">
</g>
<g style="fill:#000000; fill-opacity:0.0; 
stroke:#000000; stroke-width:150000.000000; stroke-opacity:1; 
stroke-linecap:round; stroke-linejoin:round;">
<rect x="177002200.000000" y="166007200.000000" width="108000000.000000" height="32000000.000000" rx="0.000000" />
</g>
<g style="fill:#000000; fill-opacity:0.0; 
stroke:#000000; stroke-width:21200.000000; stroke-opacity:1; 
stroke-linecap:round; stroke-linejoin:round;">
</g>
<g style="fill:#000000; fill-opacity:0.0; 
stroke:#000000; stroke-width:150000.000000; stroke-opacity:1; 
stroke-linecap:round; stroke-linejoin:round;">
<rect x="10000000.000000" y="10000000.000000" width="277002200.000000" height="190007200.000000" rx="0.000000" />
</g>
<g style="fill:#000000; fill-opacity:0.0; 
stroke:#000000; stroke-width:21200.000000; stroke-opacity:1; 
stroke-linecap:round; stroke-linejoin:round;">
</g>
<g style="fill:#000000; fill-opacity:0.0; 
stroke:#000000; stroke-width:150000.000000; stroke-opacity:1; 
stroke-linecap:round; stroke-linejoin:round;">
<rect x="12000000.000000" y="12000000.000000" width="273002200.000000" height="186007200.000000" rx="0.000000" />
</g>
<g style="fill:#000000; fill-opacity:0.0; 
stroke:#000000; stroke-width:21200.000000; stroke-opacity:1; 
stroke-linecap:round; stroke-linejoin:round;">
</g>
<g style="fill:#000000; fill-opacity:0.0; 
stroke:#000000; stroke-width:150000.000000; stroke-opacity:1; 
stroke-linecap:round; stroke-linejoin:round;">
<path d="M60000000 12000000
L60000000 10000000
" />
</g>
<g style="fill:#000000; fill-opacity:0.0; 
stroke:#000000; stroke-width:21200.000000; stroke-opacity:1; 
stroke-linecap:round; stroke-linejoin:round;">
</g>
<g style="fill:#000000; fill-opacity:0.0; 
stroke:#000000; stroke-width:150000.000000; stroke-opacity:1; 
stroke-linecap:round; stroke-linejoin:round;">
<path d="M110000000 12000000
L110000000 10000000
" />
</g>
<g style="fill:#000000; fill-opacity:0.0; 
stroke:#000000; stroke-width:21200.000000; stroke-opacity:1; 
stroke-linecap:round; stroke-linejoin:round;">
</g>
<g style="fill:#000000; fill-opacity:0.0; 
stroke:#000000; stroke-width:150000.000000; stroke-opacity:1; 
stroke-linecap:round; stroke-linejoin:round;">
<path d="M160000000 12000000
L160000000 10000000
" />
</g>
<g style="fill:#000000; fill-opacity:0.0; 
stroke:#000000; stroke-width:21200.000000; stroke-opacity:1; 
stroke-linecap:round; stroke-linejoin:round;">
</g>
<g style="fill:#000000; fill-opacity:0.0; 
stroke:#000000; stroke-width:150000.000000; stroke-opacity:1; 
stroke-linecap:round; stroke-linejoin:round;">
<path d="M210000000 12000000
L210000000 10000000
" />
</g>
<g style="fill:#000000; fill-opacity:0.0; 
stroke:#000000; stroke-width:21200.000000; stroke-opacity:1; 
stroke-linecap:round; stroke-linejoin:round;">
</g>
<g style="fill:#000000; fill-opacity:0.0; 
stroke:#000000; stroke-width:150000.000000; stroke-opacity:1; 
stroke-linecap:round; stroke-linejoin:round;">
<path d="M260000000 12000000
L260000000 10000000
" />
</g>
<g style="fill:#000000; fill-opacity:0.0; 
stroke:#000000; stroke-width:21200.000000; stroke-opacity:1; 
stroke-linecap:round; stroke-linejoin:round;">
</g>
<g style="fill:#000000; fill-opacity:0.0; 
stroke:#000000; stroke-width:150000.000000; stroke-opacity:1; 
stroke-linecap:round; stroke-linejoin:round;">
<text x="35000000.000000" y="11650000.000000"
textLength="1388095.000000" font-size="1733333.000000" lengthAdjust="spacingAndGlyphs"
text-anchor="start" opacity="0">1</text>
<g class="stroked-text"><desc>1</desc>
<path d="M36065476 11588095
L35322619 11588095
" />
<path d="M35694047 11588095
L35694047 10288095
L35570238 10473809
L35446428 10597619
L35322619 10659523
" />
</g></g>
<g style="fill:#000000; fill-opacity:0.0; 
stroke:#000000; stroke-width:21200.000000; stroke-opacity:1; 
stroke-linecap:round; stroke-linejoin:round;">
</g>
<g style="fill:#000000; fill-opacity:0.0; 
stroke:#000000; stroke-width:150000.000000; stroke-opacity:1; 
stroke-linecap:round; stroke-linejoin:round;">
<text x="85000000.000000" y="11650000.000000"
textLength="1388095.000000" font-size="1733333.000000" lengthAdjust="spacingAndGlyphs"
text-anchor="start" opacity="0">2</text>
<g class="stroked-text"><desc>2</desc>
<path d="M85322619 10411904
L85384523 10350000
L85508333 10288095
L85817857 10288095
L85941666 10350000
L86003571 10411904
L86065476 10535714
L86065476 10659523
L86003571 10845238
L85260714 11588095
L86065476 11588095
" />
</g></g>
<g style="fill:#000000; fill-opacity:0.0; 
stroke:#000000; stroke-width:21200.000000; stroke-opacity:1; 
stroke-linecap:round; stroke-linejoin:round;">
</g>
<g style="fill:#000000; fill-opacity:0.0; 
stroke:#000000; stroke-width:150000.000000; stroke-opacity:1; 
stroke-linecap:round; stroke-linejoin:round;">
<text x="135000000.000000" y="11650000.000000"
textLength="1388095.000000" font-size="1733333.000000" lengthAdjust="spacingAndGlyphs"
text-anchor="start" opacity="0">3</text>
<g class="stroked-text"><desc>3</desc>
<path d="M135260714 10288095
L136065476 10288095
L135632142 10783333
L135817857 10783333
L135941666 10845238
L136003571 10907142
L136065476 11030952
L136065476 11340476
L136003571 11464285
L135941666 11526190
L135817857 11588095
L135446428 11588095
L135322619 11526190
L135260714 11464285
" />
</g></g>
<g style="fill:#000000; fill-opacity:0.0; 
stroke:#000000; stroke-width:21200.000000; stroke-opacity:1; 
stroke-linecap:round; stroke-linejoin:round;">
</g>
<g style="fill:#000000; fill-opacity:0.0; 
stroke:#000000; stroke-width:150000.000000; stroke-opacity:1; 
stroke-linecap:round; stroke-linejoin:round;">
<text x="185000000.000000" y="11650000.000000"
textLength="1388095.000000" font-size="1733333.000000" lengthAdjust="spacingAndGlyphs"
text-anchor="start" opacity="0">4</text>
<g class="stroked-text"><desc>4</desc>
<path d="M185941666 10721428
L185941666 11588095
" />
<path d="M185632142 10226190
L185322619 11154761
L186127380 11154761
" />
</g></g>
<g style="fill:#000000; fill-opacity:0.0; 
stroke:#000000; stroke-width:21200.000000; stroke-opacity:1; 
stroke-linecap:round; stroke-linejoin:round;">
</g>
<g style="fill:#000000; fill-opacity:0.0; 
stroke:#000000; stroke-width:150000.000000; stroke-opacity:1; 
stroke-linecap:round; stroke-linejoin:round;">
<text x="235000000.000000" y="11650000.000000"
textLength="1388095.000000" font-size="1733333.000000" lengthAdjust="spacingAndGlyphs"
text-anchor="start" opacity="0">5</text>
<g class="stroked-text"><desc>5</desc>
<path d="M236003571 10288095
L235384523 10288095
L235322619 10907142
L235384523 10845238
L235508333 10783333
L235817857 10783333
L235941666 10845238
L236003571 10907142
L236065476 11030952
L236065476 11340476
L236003571 11464285
L235941666 11526190
L235817857 11588095
L235508333 11588095
L235384523 11526190
L235322619 11464285
" />
</g></g>
<g style="fill:#000000; fill-opacity:0.0; 
stroke:#000000; stroke-width:21200.000000; stroke-opacity:1; 
stroke-linecap:round; stroke-linejoin:round;">
</g>
<g style="fill:#000000; fill-opacity:0.0; 
stroke:#000000; stroke-width:150000.000000; stroke-opacity:1; 
stroke-linecap:round; stroke-linejoin:round;">
<text x="285000000.000000" y="11650000.000000"
textLength="1388095.000000" font-size="1733333.000000" lengthAdjust="spacingAndGlyphs"
text-anchor="start" opacity="0">6</text>
<g class="stroked-text"><desc>6</desc>
<path d="M285941666 10288095
L285694047 10288095
L285570238 10350000
L285508333 10411904
L285384523 10597619
L285322619 10845238
L285322619 11340476
L285384523 11464285
L285446428 11526190
L285570238 11588095
L285817857 11588095
L285941666 11526190
L286003571 11464285
L286065476 11340476
L286065476 11030952
L286003571 10907142
L285941666 10845238
L285817857 10783333
L285570238 10783333
L285446428 10845238
L285384523 10907142
L285322619 11030952
" />
</g></g>
<g style="fill:#000000; fill-opacity:0.0; 
stroke:#000000; stroke-width:21200.000000; stroke-opacity:1; 
stroke-linecap:round; stroke-linejoin:round;">
</g>
<g style="fill:#000000; fill-opacity:0.0; 
stroke:#000000; stroke-width:150000.000000; stroke-opacity:1; 
stroke-linecap:round; stroke-linejoin:round;">
<path d="M60000000 198007200
L60000000 200007200
" />
</g>
<g style="fill:#000000; fill-opacity:0.0; 
stroke:#000000; stroke-width:21200.000000; stroke-opacity:1; 
stroke-linecap:round; stroke-linejoin:round;">
</g>
<g style="fill:#000000; fill-opacity:0.0; 
stroke:#000000; stroke-width:150000.000000; stroke-opacity:1; 
stroke-linecap:round; stroke-linejoin:round;">
<path d="M110000000 198007200
L110000000 200007200
" />
</g>
<g style="fill:#000000; fill-opacity:0.0; 
stroke:#000000; stroke-width:21200.000000; stroke-opacity:1; 
stroke-linecap:round; stroke-linejoin:round;">
</g>
<g style="fill:#000000; fill-opacity:0.0; 
stroke:#000000; stroke-width:150000.000000; stroke-opacity:1; 
stroke-linecap:round; stroke-linejoin:round;">
<path d="M160000000 198007200
L160000000 200007200
" />
</g>
<g style="fill:#000000; fill-opacity:0.0; 
stroke:#000000; stroke-width:21200.000000; stroke-opacity:1; 
stroke-linecap:round; stroke-linejoin:round;">
</g>
<g style="fill:#000000; fill-opacity:0.0; 
stroke:#000000; stroke-width:150000.000000; stroke-opacity:1; 
stroke-linecap:round; stroke-linejoin:round;">
<path d="M210000000 198007200
L210000000 200007200
" />
</g>
<g style="fill:#000000; fill-opacity:0.0; 
stroke:#000000; stroke-width:21200.000000; stroke-opacity:1; 
stroke-linecap:round; stroke-linejoin:round;">
</g>
<g style="fill:#000000; fill-opacity:0.0; 
stroke:#000000; stroke-width:150000.000000; stroke-opacity:1; 
stroke-linecap:round; stroke-linejoin:round;">
<path d="M260000000 198007200
L260000000 200007200
" />
</g>
<g style="fill:#000000; fill-opacity:0.0; 
stroke:#000000; stroke-width:21200.000000; stroke-opacity:1; 
stroke-linecap:round; stroke-linejoin:round;">
</g>
<g style="fill:#000000; fill-opacity:0.0; 
stroke:#000000; stroke-width:150000.000000; stroke-opacity:1; 
stroke-linecap:round; stroke-linejoin:round;">
<text x="35000000.000000" y="199657200.000000"
textLength="1388095.000000" font-size="1733333.000000" lengthAdjust="spacingAndGlyphs"
text-anchor="start" opacity="0">1</text>
<g class="stroked-text"><desc>1</desc>
<path d="M36065476 199595295
L35322619 199595295
" />
<path d="M35694047 199595295
L35694047 198295295
L35570238 198481009
L35446428 198604819
L35322619 198666723
" />
</g></g>
<g style="fill:#000000; fill-opacity:0.0; 
stroke:#000000; stroke-width:21200.000000; stroke-opacity:1; 
stroke-linecap:round; stroke-linejoin:round;">
</g>
<g style="fill:#000000; fill-opacity:0.0; 
stroke:#000000; stroke-width:150000.000000; stroke-opacity:1; 
stroke-linecap:round; stroke-linejoin:round;">
<text x="85000000.000000" y="199657200.000000"
textLength="1388095.000000" font-size="1733333.000000" lengthAdjust="spacingAndGlyphs"
text-anchor="start" opacity="0">2</text>
<g class="stroked-text"><desc>2</desc>
<path d="M85322619 198419104
L85384523 198357200
L85508333 198295295
L85817857 198295295
L85941666 198357200
L86003571 198419104
L86065476 198542914
L86065476 198666723
L86003571 198852438
L85260714 199595295
L86065476 199595295
" />
</g></g>
<g style="fill:#000000; fill-opacity:0.0; 
stroke:#000000; stroke-width:21200.000000; stroke-opacity:1; 
stroke-linecap:round; stroke-linejoin:round;">
</g>
<g style="fill:#000000; fill-opacity:0.0; 
stroke:#000000; stroke-width:150000.000000; stroke-opacity:1; 
stroke-linecap:round; stroke-linejoin:round;">
<text x="135000000.000000" y="199657200.000000"
textLength="1388095.000000" font-size="1733333.000000" lengthAdjust="spacingAndGlyphs"
text-anchor="start" opacity="0">3</text>
<g class="stroked-text"><desc>3</desc>
<path d="M135260714 198295295
L136065476 198295295
L135632142 198790533
L135817857 198790533
L135941666 198852438
L136003571 198914342
L136065476 199038152
L136065476 199347676
L136003571 199471485
L135941666 199533390
L135817857 199595295
L135446428 199595295
L135322619 199533390
L135260714 199471485
" />
</g></g>
<g style="fill:#000000; fill-opacity:0.0; 
stroke:#000000; stroke-width:21200.000000; stroke-opacity:1; 
stroke-linecap:round; stroke-linejoin:round;">
</g>
<g style="fill:#000000; fill-opacity:0.0; 
stroke:#000000; stroke-width:150000.000000; stroke-opacity:1; 
stroke-linecap:round; stroke-linejoin:round;">
<text x="185000000.000000" y="199657200.000000"
textLength="1388095.000000" font-size="1733333.000000" lengthAdjust="spacingAndGlyphs"
text-anchor="start" opacity="0">4</text>
<g class="stroked-text"><desc>4</desc>
<path d="M185941666 198728628
L185941666 199595295
" />
<path d="M185632142 198233390
L185322619 199161961
L186127380 199161961
" />
</g></g>
<g style="fill:#000000; fill-opacity:0.0; 
stroke:#000000; stroke-width:21200.000000; stroke-opacity:1; 
stroke-linecap:round; stroke-linejoin:round;">
</g>
<g style="fill:#000000; fill-opacity:0.0; 
stroke:#000000; stroke-width:150000.000000; stroke-opacity:1; 
stroke-linecap:round; stroke-linejoin:round;">
<text x="235000000.000000" y="199657200.000000"
textLength="1388095.000000" font-size="1733333.000000" lengthAdjust="spacingAndGlyphs"
text-anchor="start" opacity="0">5</text>
<g class="stroked-text"><desc>5</desc>
<path d="M236003571 198295295
L235384523 198295295
L235322619 198914342
L235384523 198852438
L235508333 198790533
L235817857 198790533
L235941666 198852438
L236003571 198914342
L236065476 199038152
L236065476 199347676
L236003571 199471485
L235941666 199533390
L235817857 199595295
L235508333 199595295
L235384523 199533390
L235322619 199471485
" />
</g></g>
<g style="fill:#000000; fill-opacity:0.0; 
stroke:#000000; stroke-width:21200.000000; stroke-opacity:1; 
stroke-linecap:round; stroke-linejoin:round;">
</g>
<g style="fill:#000000; fill-opacity:0.0; 
stroke:#000000; stroke-width:150000.000000; stroke-opacity:1; 
stroke-linecap:round; stroke-linejoin:round;">
<text x="285000000.000000" y="199657200.000000"
textLength="1388095.000000" font-size="1733333.000000" lengthAdjust="spacingAndGlyphs"
text-anchor="start" opacity="0">6</text>
<g class="stroked-text"><desc>6</desc>
<path d="M285941666 198295295
L285694047 198295295
L285570238 198357200
L285508333 198419104
L285384523 198604819
L285322619 198852438
L285322619 199347676
L285384523 199471485
L285446428 199533390
L285570238 199595295
L285817857 199595295
L285941666 199533390
L286003571 199471485
L286065476 199347676
L286065476 199038152
L286003571 198914342
L285941666 198852438
L285817857 198790533
L285570238 198790533
L285446428 198852438
L285384523 198914342
L285322619 199038152
" />
</g></g>
<g style="fill:#000000; fill-opacity:0.0; 
stroke:#000000; stroke-width:21200.000000; stroke-opacity:1; 
stroke-linecap:round; stroke-linejoin:round;">
</g>
<g style="fill:#000000; fill-opacity:0.0; 
stroke:#000000; stroke-width:150000.000000; stroke-opacity:1; 
stroke-linecap:round; stroke-linejoin:round;">
<path d="M10000000 60000000
L12000000 60000000
" />
</g>
<g style="fill:#000000; fill-opacity:0.0; 
stroke:#000000; stroke-width:21200.000000; stroke-opacity:1; 
stroke-linecap:round; stroke-linejoin:round;">
</g>
<g style="fill:#000000; fill-opacity:0.0; 
stroke:#000000; stroke-width:150000.000000; stroke-opacity:1; 
stroke-linecap:round; stroke-linejoin:round;">
<path d="M10000000 110000000
L12000000 110000000
" />
</g>
<g style="fill:#000000; fill-opacity:0.0; 
stroke:#000000; stroke-width:21200.000000; stroke-opacity:1; 
stroke-linecap:round; stroke-linejoin:round;">
</g>
<g style="fill:#000000; fill-opacity:0.0; 
stroke:#000000; stroke-width:150000.000000; stroke-opacity:1; 
stroke-linecap:round; stroke-linejoin:round;">
<path d="M10000000 160000000
L12000000 160000000
" />
</g>
<g style="fill:#000000; fill-opacity:0.0; 
stroke:#000000; stroke-width:21200.000000; stroke-opacity:1; 
stroke-linecap:round; stroke-linejoin:round;">
</g>
<g style="fill:#000000; fill-opacity:0.0; 
stroke:#000000; stroke-width:150000.000000; stroke-opacity:1; 
stroke-linecap:round; stroke-linejoin:round;">
<text x="11000000.000000" y="35650000.000000"
textLength="1264286.000000" font-size="1733333.000000" lengthAdjust="spacingAndGlyphs"
text-anchor="middle" opacity="0">A</text>
<g class="stroked-text"><desc>A</desc>
<path d="M10690476 35216666
L11309523 35216666
" />
<path d="M10566666 35588095
L11000000 34288095
L11433333 35588095
" />
</g></g>
<g style="fill:#000000; fill-opacity:0.0; 
stroke:#000000; stroke-width:21200.000000; stroke-opacity:1; 
stroke-linecap:round; stroke-linejoin:round;">
</g>
<g style="fill:#000000; fill-opacity:0.0; 
stroke:#000000; stroke-width:150000.000000; stroke-opacity:1; 
stroke-linecap:round; stroke-linejoin:round;">
<text x="11000000.000000" y="85650000.000000"
textLength="1450000.000000" font-size="1733333.000000" lengthAdjust="spacingAndGlyphs"
text-anchor="middle" opacity="0">B</text>
<g class="stroked-text"><desc>B</desc>
<path d="M11092857 84907142
L11278571 84969047
L11340476 85030952
L11402380 85154761
L11402380 85340476
L11340476 85464285
L11278571 85526190
L11154761 85588095
L10659523 85588095
L10659523 84288095
L11092857 84288095
L11216666 84350000
L11278571 84411904
L11340476 84535714
L11340476 84659523
L11278571 84783333
L11216666 84845238
L11092857 84907142
L10659523 84907142
" />
</g></g>
<g style="fill:#000000; fill-opacity:0.0; 
stroke:#000000; stroke-width:21200.000000; stroke-opacity:1; 
stroke-linecap:round; stroke-linejoin:round;">
</g>
<g style="fill:#000000; fill-opacity:0.0; 
stroke:#000000; stroke-width:150000.000000; stroke-opacity:1; 
stroke-linecap:round; stroke-linejoin:round;">
<text x="11000000.000000" y="135650000.000000"
textLength="1450000.000000" font-size="1733333.000000" lengthAdjust="spacingAndGlyphs"
text-anchor="middle" opacity="0">C</text>
<g class="stroked-text"><desc>C</desc>
<path d="M11402380 135464285
L11340476 135526190
L11154761 135588095
L11030952 135588095
L10845238 135526190
L10721428 135402380
L10659523 135278571
L10597619 135030952
L10597619 134845238
L10659523 134597619
L10721428 134473809
L10845238 134350000
L11030952 134288095
L11154761 134288095
L11340476 134350000
L11402380 134411904
" />
</g></g>
<g style="fill:#000000; fill-opacity:0.0; 
stroke:#000000; stroke-width:21200.000000; stroke-opacity:1; 
stroke-linecap:round; stroke-linejoin:round;">
</g>
<g style="fill:#000000; fill-opacity:0.0; 
stroke:#000000; stroke-width:150000.000000; stroke-opacity:1; 
stroke-linecap:round; stroke-linejoin:round;">
<text x="11000000.000000" y="185650000.000000"
textLength="1450000.000000" font-size="1733333.000000" lengthAdjust="spacingAndGlyphs"
text-anchor="middle" opacity="0">D</text>
<g class="stroked-text"><desc>D</desc>
<path d="M10659523 185588095
L10659523 184288095
L10969047 184288095
L11154761 184350000
L11278571 184473809
L11340476 184597619
L11402380 184845238
L11402380 185030952
L11340476 185278571
L11278571 185402380
L11154761 185526190
L10969047 185588095
L10659523 185588095
" />
</g></g>
<g style="fill:#000000; fill-opacity:0.0; 
stroke:#000000; stroke-width:21200.000000; stroke-opacity:1; 
stroke-linecap:round; stroke-linejoin:round;">
</g>
<g style="fill:#000000; fill-opacity:0.0; 
stroke:#000000; stroke-width:150000.000000; stroke-opacity:1; 
stroke-linecap:round; stroke-linejoin:round;">
<path d="M287002200 60000000
L285002200 60000000
" />
</g>
<g style="fill:#000000; fill-opacity:0.0; 
stroke:#000000; stroke-width:21200.000000; stroke-opacity:1; 
stroke-linecap:round; stroke-linejoin:round;">
</g>
<g style="fill:#000000; fill-opacity:0.0; 
stroke:#000000; stroke-width:150000.000000; stroke-opacity:1; 
stroke-linecap:round; stroke-linejoin:round;">
<path d="M287002200 110000000
L285002200 110000000
" />
</g>
<g style="fill:#000000; fill-opacity:0.0; 
stroke:#000000; stroke-width:21200.000000; stroke-opacity:1; 
stroke-linecap:round; stroke-linejoin:round;">
</g>
<g style="fill:#000000; fill-opacity:0.0; 
stroke:#000000; stroke-width:150000.000000; stroke-opacity:1; 
stroke-linecap:round; stroke-linejoin:round;">
<path d="M287002200 160000000
L285002200 160000000
" />
</g>
<g style="fill:#000000; fill-opacity:0.0; 
stroke:#000000; stroke-width:21200.000000; stroke-opacity:1; 
stroke-linecap:round; stroke-linejoin:round;">
</g>
<g style="fill:#000000; fill-opacity:0.0; 
stroke:#000000; stroke-width:150000.000000; stroke-opacity:1; 
stroke-linecap:round; stroke-linejoin:round;">
<text x="286002200.000000" y="35650000.000000"
textLength="1264286.000000" font-size="1733333.000000" lengthAdjust="spacingAndGlyphs"
text-anchor="middle" opacity="0">A</text>
<g class="stroked-text"><desc>A</desc>
<path d="M285692676 35216666
L286311723 35216666
" />
<path d="M285568866 35588095
L286002200 34288095
L286435533 35588095
" />
</g></g>
<g style="fill:#000000; fill-opacity:0.0; 
stroke:#000000; stroke-width:21200.000000; stroke-opacity:1; 
stroke-linecap:round; stroke-linejoin:round;">
</g>
<g style="fill:#000000; fill-opacity:0.0; 
stroke:#000000; stroke-width:150000.000000; stroke-opacity:1; 
stroke-linecap:round; stroke-linejoin:round;">
<text x="286002200.000000" y="85650000.000000"
textLength="1450000.000000" font-size="1733333.000000" lengthAdjust="spacingAndGlyphs"
text-anchor="middle" opacity="0">B</text>
<g class="stroked-text"><desc>B</desc>
<path d="M286095057 84907142
L286280771 84969047
L286342676 85030952
L286404580 85154761
L286404580 85340476
L286342676 85464285
L286280771 85526190
L286156961 85588095
L285661723 85588095
L285661723 84288095
L286095057 84288095
L286218866 84350000
L286280771 84411904
L286342676 84535714
L286342676 84659523
L286280771 84783333
L286218866 84845238
L286095057 84907142
L285661723 84907142
" />
</g></g>
<g style="fill:#000000; fill-opacity:0.0; 
stroke:#000000; stroke-width:21200.000000; stroke-opacity:1; 
stroke-linecap:round; stroke-linejoin:round;">
</g>
<g style="fill:#000000; fill-opacity:0.0; 
stroke:#000000; stroke-width:150000.000000; stroke-opacity:1; 
stroke-linecap:round; stroke-linejoin:round;">
<text x="286002200.000000" y="135650000.000000"
textLength="1450000.000000" font-size="1733333.000000" lengthAdjust="spacingAndGlyphs"
text-anchor="middle" opacity="0">C</text>
<g class="stroked-text"><desc>C</desc>
<path d="M286404580 135464285
L286342676 135526190
L286156961 135588095
L286033152 135588095
L285847438 135526190
L285723628 135402380
L285661723 135278571
L285599819 135030952
L285599819 134845238
L285661723 134597619
L285723628 134473809
L285847438 134350000
L286033152 134288095
L286156961 134288095
L286342676 134350000
L286404580 134411904
" />
</g></g>
<g style="fill:#000000; fill-opacity:0.0; 
stroke:#000000; stroke-width:21200.000000; stroke-opacity:1; 
stroke-linecap:round; stroke-linejoin:round;">
</g>
<g style="fill:#000000; fill-opacity:0.0; 
stroke:#000000; stroke-width:150000.000000; stroke-opacity:1; 
stroke-linecap:round; stroke-linejoin:round;">
<text x="286002200.000000" y="185650000.000000"
textLength="1450000.000000" font-size="1733333.000000" lengthAdjust="spacingAndGlyphs"
text-anchor="middle" opacity="0">D</text>
<g class="stroked-text"><desc>D</desc>
<path d="M285661723 185588095
L285661723 184288095
L285971247 184288095
L286156961 184350000
L286280771 184473809
L286342676 184597619
L286404580 184845238
L286404580 185030952
L286342676 185278571
L286280771 185402380
L286156961 185526190
L285971247 185588095
L285661723 185588095
" />
</g></g>
<g style="fill:#000000; fill-opacity:0.0; 
stroke:#000000; stroke-width:21200.000000; stroke-opacity:1; 
stroke-linecap:round; stroke-linejoin:round;">
</g>
<g style="fill:#000000; fill-opacity:0.0; 
stroke:#000000; stroke-width:150000.000000; stroke-opacity:1; 
stroke-linecap:round; stroke-linejoin:round;">
<text x="200002200.000000" y="193857200.000000"
textLength="7007143.000000" font-size="2000000.000000" lengthAdjust="spacingAndGlyphs"
text-anchor="start" opacity="0">Date: </text>
<g class="stroked-text"><desc>Date: </desc>
<path d="M200434342 193785771
L200434342 192285771
L200791485 192285771
L201005771 192357200
L201148628 192500057
L201220057 192642914
L201291485 192928628
L201291485 193142914
L201220057 193428628
L201148628 193571485
L201005771 193714342
L200791485 193785771
L200434342 193785771
" />
<path d="M202577200 193785771
L202577200 193000057
L202505771 192857200
L202362914 192785771
L202077200 192785771
L201934342 192857200
" />
<path d="M202577200 193714342
L202434342 193785771
L202077200 193785771
L201934342 193714342
L201862914 193571485
L201862914 193428628
L201934342 193285771
L202077200 193214342
L202434342 193214342
L202577200 193142914
" />
<path d="M203077200 192785771
L203648628 192785771
" />
<path d="M203291485 192285771
L203291485 193571485
L203362914 193714342
L203505771 193785771
L203648628 193785771
" />
<path d="M204720057 193714342
L204577200 193785771
L204291485 193785771
L204148628 193714342
L204077200 193571485
L204077200 193000057
L204148628 192857200
L204291485 192785771
L204577200 192785771
L204720057 192857200
L204791485 193000057
L204791485 193142914
L204077200 193285771
" />
<path d="M205434342 193642914
L205505771 193714342
L205434342 193785771
L205362914 193714342
L205434342 193642914
L205434342 193785771
" />
<path d="M205434342 192857200
L205505771 192928628
L205434342 193000057
L205362914 192928628
L205434342 192857200
L205434342 193000057
" />
</g></g>
<g style="fill:#000000; fill-opacity:0.0; 
stroke:#000000; stroke-width:21200.000000; stroke-opacity:1; 
stroke-linecap:round; stroke-linejoin:round;">
</g>
<g style="fill:#000000; fill-opacity:0.0; 
stroke:#000000; stroke-width:150000.000000; stroke-opacity:1; 
stroke-linecap:round; stroke-linejoin:round;">
<path d="M177002200 194507200
L285002200 194507200
" />
</g>
<g style="fill:#000000; fill-opacity:0.0; 
stroke:#000000; stroke-width:21200.000000; stroke-opacity:1; 
stroke-linecap:round; stroke-linejoin:round;">
</g>
<g style="fill:#000000; fill-opacity:0.0; 
stroke:#000000; stroke-width:150000.000000; stroke-opacity:1; 
stroke-linecap:round; stroke-linejoin:round;">
<text x="178002200.000000" y="196657200.000000"
textLength="31078571.000000" font-size="2000000.000000" lengthAdjust="spacingAndGlyphs"
text-anchor="start" opacity="0">KiCad E.D.A.  kicad (6.0.1)</text>
<g class="stroked-text"><desc>KiCad E.D.A.  kicad (6.0.1)</desc>
<path d="M178434342 196585771
L178434342 195085771
" />
<path d="M179291485 196585771
L178648628 195728628
" />
<path d="M179291485 195085771
L178434342 195942914
" />
<path d="M179934342 196585771
L179934342 195585771
" />
<path d="M179934342 195085771
L179862914 195157200
L179934342 195228628
L180005771 195157200
L179934342 195085771
L179934342 195228628
" />
<path d="M181505771 196442914
L181434342 196514342
L181220057 196585771
L181077200 196585771
L180862914 196514342
L180720057 196371485
L180648628 196228628
L180577200 195942914
L180577200 195728628
L180648628 195442914
L180720057 195300057
L180862914 195157200
L181077200 195085771
L181220057 195085771
L181434342 195157200
L181505771 195228628
" />
<path d="M182791485 196585771
L182791485 195800057
L182720057 195657200
L182577200 195585771
L182291485 195585771
L182148628 195657200
" />
<path d="M182791485 196514342
L182648628 196585771
L182291485 196585771
L182148628 196514342
L182077200 196371485
L182077200 196228628
L182148628 196085771
L182291485 196014342
L182648628 196014342
L182791485 195942914
" />
<path d="M184148628 196585771
L184148628 195085771
" />
<path d="M184148628 196514342
L184005771 196585771
L183720057 196585771
L183577200 196514342
L183505771 196442914
L183434342 196300057
L183434342 195871485
L183505771 195728628
L183577200 195657200
L183720057 195585771
L184005771 195585771
L184148628 195657200
" />
<path d="M186005771 195800057
L186505771 195800057
" />
<path d="M186720057 196585771
L186005771 196585771
L186005771 195085771
L186720057 195085771
" />
<path d="M187362914 196442914
L187434342 196514342
L187362914 196585771
L187291485 196514342
L187362914 196442914
L187362914 196585771
" />
<path d="M188077200 196585771
L188077200 195085771
L188434342 195085771
L188648628 195157200
L188791485 195300057
L188862914 195442914
L188934342 195728628
L188934342 195942914
L188862914 196228628
L188791485 196371485
L188648628 196514342
L188434342 196585771
L188077200 196585771
" />
<path d="M189577200 196442914
L189648628 196514342
L189577200 196585771
L189505771 196514342
L189577200 196442914
L189577200 196585771
" />
<path d="M190220057 196157200
L190934342 196157200
" />
<path d="M190077200 196585771
L190577200 195085771
L191077200 196585771
" />
<path d="M191577200 196442914
L191648628 196514342
L191577200 196585771
L191505771 196514342
L191577200 196442914
L191577200 196585771
" />
<path d="M194577200 196585771
L194577200 195085771
" />
<path d="M194720057 196014342
L195148628 196585771
" />
<path d="M195148628 195585771
L194577200 196157200
" />
<path d="M195791485 196585771
L195791485 195585771
" />
<path d="M195791485 195085771
L195720057 195157200
L195791485 195228628
L195862914 195157200
L195791485 195085771
L195791485 195228628
" />
<path d="M197148628 196514342
L197005771 196585771
L196720057 196585771
L196577200 196514342
L196505771 196442914
L196434342 196300057
L196434342 195871485
L196505771 195728628
L196577200 195657200
L196720057 195585771
L197005771 195585771
L197148628 195657200
" />
<path d="M198434342 196585771
L198434342 195800057
L198362914 195657200
L198220057 195585771
L197934342 195585771
L197791485 195657200
" />
<path d="M198434342 196514342
L198291485 196585771
L197934342 196585771
L197791485 196514342
L197720057 196371485
L197720057 196228628
L197791485 196085771
L197934342 196014342
L198291485 196014342
L198434342 195942914
" />
<path d="M199791485 196585771
L199791485 195085771
" />
<path d="M199791485 196514342
L199648628 196585771
L199362914 196585771
L199220057 196514342
L199148628 196442914
L199077200 196300057
L199077200 195871485
L199148628 195728628
L199220057 195657200
L199362914 195585771
L199648628 195585771
L199791485 195657200
" />
<path d="M202077200 197157200
L202005771 197085771
L201862914 196871485
L201791485 196728628
L201720057 196514342
L201648628 196157200
L201648628 195871485
L201720057 195514342
L201791485 195300057
L201862914 195157200
L202005771 194942914
L202077200 194871485
" />
<path d="M203291485 195085771
L203005771 195085771
L202862914 195157200
L202791485 195228628
L202648628 195442914
L202577200 195728628
L202577200 196300057
L202648628 196442914
L202720057 196514342
L202862914 196585771
L203148628 196585771
L203291485 196514342
L203362914 196442914
L203434342 196300057
L203434342 195942914
L203362914 195800057
L203291485 195728628
L203148628 195657200
L202862914 195657200
L202720057 195728628
L202648628 195800057
L202577200 195942914
" />
<path d="M204077200 196442914
L204148628 196514342
L204077200 196585771
L204005771 196514342
L204077200 196442914
L204077200 196585771
" />
<path d="M205077200 195085771
L205220057 195085771
L205362914 195157200
L205434342 195228628
L205505771 195371485
L205577200 195657200
L205577200 196014342
L205505771 196300057
L205434342 196442914
L205362914 196514342
L205220057 196585771
L205077200 196585771
L204934342 196514342
L204862914 196442914
L204791485 196300057
L204720057 196014342
L204720057 195657200
L204791485 195371485
L204862914 195228628
L204934342 195157200
L205077200 195085771
" />
<path d="M206220057 196442914
L206291485 196514342
L206220057 196585771
L206148628 196514342
L206220057 196442914
L206220057 196585771
" />
<path d="M207720057 196585771
L206862914 196585771
" />
<path d="M207291485 196585771
L207291485 195085771
L207148628 195300057
L207005771 195442914
L206862914 195514342
" />
<path d="M208220057 197157200
L208291485 197085771
L208434342 196871485
L208505771 196728628
L208577200 196514342
L208648628 196157200
L208648628 195871485
L208577200 195514342
L208505771 195300057
L208434342 195157200
L208291485 194942914
L208220057 194871485
" />
</g></g>
<g style="fill:#000000; fill-opacity:0.0; 
stroke:#000000; stroke-width:21200.000000; stroke-opacity:1; 
stroke-linecap:round; stroke-linejoin:round;">
</g>
<g style="fill:#000000; fill-opacity:0.0; 
stroke:#000000; stroke-width:150000.000000; stroke-opacity:1; 
stroke-linecap:round; stroke-linejoin:round;">
<path d="M177002200 191507200
L285002200 191507200
" />
</g>
<g style="fill:#000000; fill-opacity:0.0; 
stroke:#000000; stroke-width:21200.000000; stroke-opacity:1; 
stroke-linecap:round; stroke-linejoin:round;">
</g>
<g style="fill:#000000; fill-opacity:0.0; 
stroke:#000000; stroke-width:300000.000000; stroke-opacity:1; 
stroke-linecap:round; stroke-linejoin:round;">
<text x="263002200.000000" y="193857200.000000"
textLength="5935714.000000" font-size="2000000.000000" lengthAdjust="spacingAndGlyphs"
text-anchor="start" opacity="0">Rev: </text>
<g class="stroked-text"><desc>Rev: </desc>
<path d="M264411485 193785771
L263911485 193071485
" />
<path d="M263554342 193785771
L263554342 192285771
L264125771 192285771
L264268628 192357200
L264340057 192428628
L264411485 192571485
L264411485 192785771
L264340057 192928628
L264268628 193000057
L264125771 193071485
L263554342 193071485
" />
<path d="M265625771 193714342
L265482914 193785771
L265197200 193785771
L265054342 193714342
L264982914 193571485
L264982914 193000057
L265054342 192857200
L265197200 192785771
L265482914 192785771
L265625771 192857200
L265697200 193000057
L265697200 193142914
L264982914 193285771
" />
<path d="M266197200 192785771
L266554342 193785771
L266911485 192785771
" />
<path d="M267482914 193642914
L267554342 193714342
L267482914 193785771
L267411485 193714342
L267482914 193642914
L267482914 193785771
" />
<path d="M267482914 192857200
L267554342 192928628
L267482914 193000057
L267411485 192928628
L267482914 192857200
L267482914 193000057
" />
</g></g>
<g style="fill:#000000; fill-opacity:0.0; 
stroke:#000000; stroke-width:21200.000000; stroke-opacity:1; 
stroke-linecap:round; stroke-linejoin:round;">
</g>
<g style="fill:#000000; fill-opacity:0.0; 
stroke:#000000; stroke-width:150000.000000; stroke-opacity:1; 
stroke-linecap:round; stroke-linejoin:round;">
<text x="178002200.000000" y="193857200.000000"
textLength="9604286.000000" font-size="2000000.000000" lengthAdjust="spacingAndGlyphs"
text-anchor="start" opacity="0">Size: A4</text>
<g class="stroked-text"><desc>Size: A4</desc>
<path d="M178362914 193714342
L178577200 193785771
L178934342 193785771
L179077200 193714342
L179148628 193642914
L179220057 193500057
L179220057 193357200
L179148628 193214342
L179077200 193142914
L178934342 193071485
L178648628 193000057
L178505771 192928628
L178434342 192857200
L178362914 192714342
L178362914 192571485
L178434342 192428628
L178505771 192357200
L178648628 192285771
L179005771 192285771
L179220057 192357200
" />
<path d="M179862914 193785771
L179862914 192785771
" />
<path d="M179862914 192285771
L179791485 192357200
L179862914 192428628
L179934342 192357200
L179862914 192285771
L179862914 192428628
" />
<path d="M180434342 192785771
L181220057 192785771
L180434342 193785771
L181220057 193785771
" />
<path d="M182362914 193714342
L182220057 193785771
L181934342 193785771
L181791485 193714342
L181720057 193571485
L181720057 193000057
L181791485 192857200
L181934342 192785771
L182220057 192785771
L182362914 192857200
L182434342 193000057
L182434342 193142914
L181720057 193285771
" />
<path d="M183077200 193642914
L183148628 193714342
L183077200 193785771
L183005771 193714342
L183077200 193642914
L183077200 193785771
" />
<path d="M183077200 192857200
L183148628 192928628
L183077200 193000057
L183005771 192928628
L183077200 192857200
L183077200 193000057
" />
<path d="M184862914 193357200
L185577200 193357200
" />
<path d="M184720057 193785771
L185220057 192285771
L185720057 193785771
" />
<path d="M186862914 192785771
L186862914 193785771
" />
<path d="M186505771 192214342
L186148628 193285771
L187077200 193285771
" />
</g></g>
<g style="fill:#000000; fill-opacity:0.0; 
stroke:#000000; stroke-width:21200.000000; stroke-opacity:1; 
stroke-linecap:round; stroke-linejoin:round;">
</g>
<g style="fill:#000000; fill-opacity:0.0; 
stroke:#000000; stroke-width:150000.000000; stroke-opacity:1; 
stroke-linecap:round; stroke-linejoin:round;">
<text x="263002200.000000" y="196657200.000000"
textLength="8507143.000000" font-size="2000000.000000" lengthAdjust="spacingAndGlyphs"
text-anchor="start" opacity="0">Id: 1/1</text>
<g class="stroked-text"><desc>Id: 1/1</desc>
<path d="M263434342 196585771
L263434342 195085771
" />
<path d="M264791485 196585771
L264791485 195085771
" />
<path d="M264791485 196514342
L264648628 196585771
L264362914 196585771
L264220057 196514342
L264148628 196442914
L264077200 196300057
L264077200 195871485
L264148628 195728628
L264220057 195657200
L264362914 195585771
L264648628 195585771
L264791485 195657200
" />
<path d="M265505771 196442914
L265577200 196514342
L265505771 196585771
L265434342 196514342
L265505771 196442914
L265505771 196585771
" />
<path d="M265505771 195657200
L265577200 195728628
L265505771 195800057
L265434342 195728628
L265505771 195657200
L265505771 195800057
" />
<path d="M268148628 196585771
L267291485 196585771
" />
<path d="M267720057 196585771
L267720057 195085771
L267577200 195300057
L267434342 195442914
L267291485 195514342
" />
<path d="M269862914 195014342
L268577200 196942914
" />
<path d="M271148628 196585771
L270291485 196585771
" />
<path d="M270720057 196585771
L270720057 195085771
L270577200 195300057
L270434342 195442914
L270291485 195514342
" />
</g></g>
<g style="fill:#000000; fill-opacity:0.0; 
stroke:#000000; stroke-width:21200.000000; stroke-opacity:1; 
stroke-linecap:round; stroke-linejoin:round;">
</g>
<g style="fill:#000000; fill-opacity:0.0; 
stroke:#000000; stroke-width:150000.000000; stroke-opacity:1; 
stroke-linecap:round; stroke-linejoin:round;">
<path d="M177002200 187507200
L285002200 187507200
" />
</g>
<g style="fill:#000000; fill-opacity:0.0; 
stroke:#000000; stroke-width:21200.000000; stroke-opacity:1; 
stroke-linecap:round; stroke-linejoin:round;">
</g>
<g style="fill:#000000; fill-opacity:0.0; 
stroke:#000000; stroke-width:400000.000000; stroke-opacity:1; 
stroke-linecap:round; stroke-linejoin:round;">
<text x="178002200.000000" y="190307200.000000"
textLength="9409643.000000" font-size="2666666.000000" lengthAdjust="spacingAndGlyphs"
text-anchor="start" opacity="0">Title: </text>
<g class="stroked-text"><desc>Title: </desc>
<path d="M178714580 188211961
L179857438 188211961
" />
<path d="M179036009 190211961
L179286009 188211961
" />
<path d="M180274104 190211961
L180440771 188878628
" />
<path d="M180524104 188211961
L180416961 188307200
L180500295 188402438
L180607438 188307200
L180524104 188211961
L180500295 188402438
" />
<path d="M181107438 188878628
L181869342 188878628
" />
<path d="M181476485 188211961
L181262200 189926247
L181333628 190116723
L181512200 190211961
L181702676 190211961
" />
<path d="M182655057 190211961
L182476485 190116723
L182405057 189926247
L182619342 188211961
" />
<path d="M184190771 190116723
L183988390 190211961
L183607438 190211961
L183428866 190116723
L183357438 189926247
L183452676 189164342
L183571723 188973866
L183774104 188878628
L184155057 188878628
L184333628 188973866
L184405057 189164342
L184381247 189354819
L183405057 189545295
" />
<path d="M185155057 190021485
L185238390 190116723
L185131247 190211961
L185047914 190116723
L185155057 190021485
L185131247 190211961
" />
<path d="M185286009 188973866
L185369342 189069104
L185262200 189164342
L185178866 189069104
L185286009 188973866
L185262200 189164342
" />
</g></g>
<g style="fill:#000000; fill-opacity:0.0; 
stroke:#000000; stroke-width:21200.000000; stroke-opacity:1; 
stroke-linecap:round; stroke-linejoin:round;">
</g>
<g style="fill:#000000; fill-opacity:0.0; 
stroke:#000000; stroke-width:150000.000000; stroke-opacity:1; 
stroke-linecap:round; stroke-linejoin:round;">
<text x="178002200.000000" y="186457200.000000"
textLength="50162857.000000" font-size="2000000.000000" lengthAdjust="spacingAndGlyphs"
text-anchor="start" opacity="0">File: gbsc-sync-combiner-v1-3.kicad_pcb</text>
<g class="stroked-text"><desc>File: gbsc-sync-combiner-v1-3.kicad_pcb</desc>
<path d="M178934342 185600057
L178434342 185600057
" />
<path d="M178434342 186385771
L178434342 184885771
L179148628 184885771
" />
<path d="M179720057 186385771
L179720057 185385771
" />
<path d="M179720057 184885771
L179648628 184957200
L179720057 185028628
L179791485 184957200
L179720057 184885771
L179720057 185028628
" />
<path d="M180648628 186385771
L180505771 186314342
L180434342 186171485
L180434342 184885771
" />
<path d="M181791485 186314342
L181648628 186385771
L181362914 186385771
L181220057 186314342
L181148628 186171485
L181148628 185600057
L181220057 185457200
L181362914 185385771
L181648628 185385771
L181791485 185457200
L181862914 185600057
L181862914 185742914
L181148628 185885771
" />
<path d="M182505771 186242914
L182577200 186314342
L182505771 186385771
L182434342 186314342
L182505771 186242914
L182505771 186385771
" />
<path d="M182505771 185457200
L182577200 185528628
L182505771 185600057
L182434342 185528628
L182505771 185457200
L182505771 185600057
" />
<path d="M185005771 185385771
L185005771 186600057
L184934342 186742914
L184862914 186814342
L184720057 186885771
L184505771 186885771
L184362914 186814342
" />
<path d="M185005771 186314342
L184862914 186385771
L184577200 186385771
L184434342 186314342
L184362914 186242914
L184291485 186100057
L184291485 185671485
L184362914 185528628
L184434342 185457200
L184577200 185385771
L184862914 185385771
L185005771 185457200
" />
<path d="M185720057 186385771
L185720057 184885771
" />
<path d="M185720057 185457200
L185862914 185385771
L186148628 185385771
L186291485 185457200
L186362914 185528628
L186434342 185671485
L186434342 186100057
L186362914 186242914
L186291485 186314342
L186148628 186385771
L185862914 186385771
L185720057 186314342
" />
<path d="M187005771 186314342
L187148628 186385771
L187434342 186385771
L187577200 186314342
L187648628 186171485
L187648628 186100057
L187577200 185957200
L187434342 185885771
L187220057 185885771
L187077200 185814342
L187005771 185671485
L187005771 185600057
L187077200 185457200
L187220057 185385771
L187434342 185385771
L187577200 185457200
" />
<path d="M188934342 186314342
L188791485 186385771
L188505771 186385771
L188362914 186314342
L188291485 186242914
L188220057 186100057
L188220057 185671485
L188291485 185528628
L188362914 185457200
L188505771 185385771
L188791485 185385771
L188934342 185457200
" />
<path d="M189577200 185814342
L190720057 185814342
" />
<path d="M191362914 186314342
L191505771 186385771
L191791485 186385771
L191934342 186314342
L192005771 186171485
L192005771 186100057
L191934342 185957200
L191791485 185885771
L191577200 185885771
L191434342 185814342
L191362914 185671485
L191362914 185600057
L191434342 185457200
L191577200 185385771
L191791485 185385771
L191934342 185457200
" />
<path d="M192505771 185385771
L192862914 186385771
" />
<path d="M193220057 185385771
L192862914 186385771
L192720057 186742914
L192648628 186814342
L192505771 186885771
" />
<path d="M193791485 185385771
L193791485 186385771
" />
<path d="M193791485 185528628
L193862914 185457200
L194005771 185385771
L194220057 185385771
L194362914 185457200
L194434342 185600057
L194434342 186385771
" />
<path d="M195791485 186314342
L195648628 186385771
L195362914 186385771
L195220057 186314342
L195148628 186242914
L195077200 186100057
L195077200 185671485
L195148628 185528628
L195220057 185457200
L195362914 185385771
L195648628 185385771
L195791485 185457200
" />
<path d="M196434342 185814342
L197577200 185814342
" />
<path d="M198934342 186314342
L198791485 186385771
L198505771 186385771
L198362914 186314342
L198291485 186242914
L198220057 186100057
L198220057 185671485
L198291485 185528628
L198362914 185457200
L198505771 185385771
L198791485 185385771
L198934342 185457200
" />
<path d="M199791485 186385771
L199648628 186314342
L199577200 186242914
L199505771 186100057
L199505771 185671485
L199577200 185528628
L199648628 185457200
L199791485 185385771
L200005771 185385771
L200148628 185457200
L200220057 185528628
L200291485 185671485
L200291485 186100057
L200220057 186242914
L200148628 186314342
L200005771 186385771
L199791485 186385771
" />
<path d="M200934342 186385771
L200934342 185385771
" />
<path d="M200934342 185528628
L201005771 185457200
L201148628 185385771
L201362914 185385771
L201505771 185457200
L201577200 185600057
L201577200 186385771
" />
<path d="M201577200 185600057
L201648628 185457200
L201791485 185385771
L202005771 185385771
L202148628 185457200
L202220057 185600057
L202220057 186385771
" />
<path d="M202934342 186385771
L202934342 184885771
" />
<path d="M202934342 185457200
L203077200 185385771
L203362914 185385771
L203505771 185457200
L203577200 185528628
L203648628 185671485
L203648628 186100057
L203577200 186242914
L203505771 186314342
L203362914 186385771
L203077200 186385771
L202934342 186314342
" />
<path d="M204291485 186385771
L204291485 185385771
" />
<path d="M204291485 184885771
L204220057 184957200
L204291485 185028628
L204362914 184957200
L204291485 184885771
L204291485 185028628
" />
<path d="M205005771 185385771
L205005771 186385771
" />
<path d="M205005771 185528628
L205077200 185457200
L205220057 185385771
L205434342 185385771
L205577200 185457200
L205648628 185600057
L205648628 186385771
" />
<path d="M206934342 186314342
L206791485 186385771
L206505771 186385771
L206362914 186314342
L206291485 186171485
L206291485 185600057
L206362914 185457200
L206505771 185385771
L206791485 185385771
L206934342 185457200
L207005771 185600057
L207005771 185742914
L206291485 185885771
" />
<path d="M207648628 186385771
L207648628 185385771
" />
<path d="M207648628 185671485
L207720057 185528628
L207791485 185457200
L207934342 185385771
L208077200 185385771
" />
<path d="M208577200 185814342
L209720057 185814342
" />
<path d="M210291485 185385771
L210648628 186385771
L211005771 185385771
" />
<path d="M212362914 186385771
L211505771 186385771
" />
<path d="M211934342 186385771
L211934342 184885771
L211791485 185100057
L211648628 185242914
L211505771 185314342
" />
<path d="M213005771 185814342
L214148628 185814342
" />
<path d="M214720057 184885771
L215648628 184885771
L215148628 185457200
L215362914 185457200
L215505771 185528628
L215577200 185600057
L215648628 185742914
L215648628 186100057
L215577200 186242914
L215505771 186314342
L215362914 186385771
L214934342 186385771
L214791485 186314342
L214720057 186242914
" />
<path d="M216291485 186242914
L216362914 186314342
L216291485 186385771
L216220057 186314342
L216291485 186242914
L216291485 186385771
" />
<path d="M217005771 186385771
L217005771 184885771
" />
<path d="M217148628 185814342
L217577200 186385771
" />
<path d="M217577200 185385771
L217005771 185957200
" />
<path d="M218220057 186385771
L218220057 185385771
" />
<path d="M218220057 184885771
L218148628 184957200
L218220057 185028628
L218291485 184957200
L218220057 184885771
L218220057 185028628
" />
<path d="M219577200 186314342
L219434342 186385771
L219148628 186385771
L219005771 186314342
L218934342 186242914
L218862914 186100057
L218862914 185671485
L218934342 185528628
L219005771 185457200
L219148628 185385771
L219434342 185385771
L219577200 185457200
" />
<path d="M220862914 186385771
L220862914 185600057
L220791485 185457200
L220648628 185385771
L220362914 185385771
L220220057 185457200
" />
<path d="M220862914 186314342
L220720057 186385771
L220362914 186385771
L220220057 186314342
L220148628 186171485
L220148628 186028628
L220220057 185885771
L220362914 185814342
L220720057 185814342
L220862914 185742914
" />
<path d="M222220057 186385771
L222220057 184885771
" />
<path d="M222220057 186314342
L222077200 186385771
L221791485 186385771
L221648628 186314342
L221577200 186242914
L221505771 186100057
L221505771 185671485
L221577200 185528628
L221648628 185457200
L221791485 185385771
L222077200 185385771
L222220057 185457200
" />
<path d="M222577200 186528628
L223720057 186528628
" />
<path d="M224077200 185385771
L224077200 186885771
" />
<path d="M224077200 185457200
L224220057 185385771
L224505771 185385771
L224648628 185457200
L224720057 185528628
L224791485 185671485
L224791485 186100057
L224720057 186242914
L224648628 186314342
L224505771 186385771
L224220057 186385771
L224077200 186314342
" />
<path d="M226077200 186314342
L225934342 186385771
L225648628 186385771
L225505771 186314342
L225434342 186242914
L225362914 186100057
L225362914 185671485
L225434342 185528628
L225505771 185457200
L225648628 185385771
L225934342 185385771
L226077200 185457200
" />
<path d="M226720057 186385771
L226720057 184885771
" />
<path d="M226720057 185457200
L226862914 185385771
L227148628 185385771
L227291485 185457200
L227362914 185528628
L227434342 185671485
L227434342 186100057
L227362914 186242914
L227291485 186314342
L227148628 186385771
L226862914 186385771
L226720057 186314342
" />
</g></g>
<g style="fill:#000000; fill-opacity:0.0; 
stroke:#000000; stroke-width:21200.000000; stroke-opacity:1; 
stroke-linecap:round; stroke-linejoin:round;">
</g>
<g style="fill:#000000; fill-opacity:0.0; 
stroke:#000000; stroke-width:150000.000000; stroke-opacity:1; 
stroke-linecap:round; stroke-linejoin:round;">
<path d="M177002200 181507200
L285002200 181507200
" />
</g>
<g style="fill:#000000; fill-opacity:0.0; 
stroke:#000000; stroke-width:21200.000000; stroke-opacity:1; 
stroke-linecap:round; stroke-linejoin:round;">
</g>
<g style="fill:#000000; fill-opacity:0.0; 
stroke:#000000; stroke-width:150000.000000; stroke-opacity:1; 
stroke-linecap:round; stroke-linejoin:round;">
<text x="178002200.000000" y="183757200.000000"
textLength="8221429.000000" font-size="2000000.000000" lengthAdjust="spacingAndGlyphs"
text-anchor="start" opacity="0">Sheet: </text>
<g class="stroked-text"><desc>Sheet: </desc>
<path d="M178362914 183614342
L178577200 183685771
L178934342 183685771
L179077200 183614342
L179148628 183542914
L179220057 183400057
L179220057 183257200
L179148628 183114342
L179077200 183042914
L178934342 182971485
L178648628 182900057
L178505771 182828628
L178434342 182757200
L178362914 182614342
L178362914 182471485
L178434342 182328628
L178505771 182257200
L178648628 182185771
L179005771 182185771
L179220057 182257200
" />
<path d="M179862914 183685771
L179862914 182185771
" />
<path d="M180505771 183685771
L180505771 182900057
L180434342 182757200
L180291485 182685771
L180077200 182685771
L179934342 182757200
L179862914 182828628
" />
<path d="M181791485 183614342
L181648628 183685771
L181362914 183685771
L181220057 183614342
L181148628 183471485
L181148628 182900057
L181220057 182757200
L181362914 182685771
L181648628 182685771
L181791485 182757200
L181862914 182900057
L181862914 183042914
L181148628 183185771
" />
<path d="M183077200 183614342
L182934342 183685771
L182648628 183685771
L182505771 183614342
L182434342 183471485
L182434342 182900057
L182505771 182757200
L182648628 182685771
L182934342 182685771
L183077200 182757200
L183148628 182900057
L183148628 183042914
L182434342 183185771
" />
<path d="M183577200 182685771
L184148628 182685771
" />
<path d="M183791485 182185771
L183791485 183471485
L183862914 183614342
L184005771 183685771
L184148628 183685771
" />
<path d="M184648628 183542914
L184720057 183614342
L184648628 183685771
L184577200 183614342
L184648628 183542914
L184648628 183685771
" />
<path d="M184648628 182757200
L184720057 182828628
L184648628 182900057
L184577200 182828628
L184648628 182757200
L184648628 182900057
" />
</g></g>
<g style="fill:#000000; fill-opacity:0.0; 
stroke:#000000; stroke-width:21200.000000; stroke-opacity:1; 
stroke-linecap:round; stroke-linejoin:round;">
</g>
<g style="fill:#000000; fill-opacity:0.0; 
stroke:#000000; stroke-width:300000.000000; stroke-opacity:1; 
stroke-linecap:round; stroke-linejoin:round;">
<text x="178002200.000000" y="180757200.000000"
textLength="150000.000000" font-size="2000000.000000" lengthAdjust="spacingAndGlyphs"
text-anchor="start" opacity="0"></text>
<g class="stroked-text"><desc></desc>
</g></g>
<g style="fill:#000000; fill-opacity:0.0; 
stroke:#000000; stroke-width:21200.000000; stroke-opacity:1; 
stroke-linecap:round; stroke-linejoin:round;">
</g>
<g style="fill:#000000; fill-opacity:0.0; 
stroke:#000000; stroke-width:150000.000000; stroke-opacity:1; 
stroke-linecap:round; stroke-linejoin:round;">
<text x="178002200.000000" y="177757200.000000"
textLength="300000.000000" font-size="2000000.000000" lengthAdjust="spacingAndGlyphs"
text-anchor="start" opacity="0"></text>
<g class="stroked-text"><desc></desc>
</g></g>
<g style="fill:#000000; fill-opacity:0.0; 
stroke:#000000; stroke-width:21200.000000; stroke-opacity:1; 
stroke-linecap:round; stroke-linejoin:round;">
</g>
<g style="fill:#000000; fill-opacity:0.0; 
stroke:#000000; stroke-width:150000.000000; stroke-opacity:1; 
stroke-linecap:round; stroke-linejoin:round;">
<text x="178002200.000000" y="174757200.000000"
textLength="150000.000000" font-size="2000000.000000" lengthAdjust="spacingAndGlyphs"
text-anchor="start" opacity="0"></text>
<g class="stroked-text"><desc></desc>
</g></g>
<g style="fill:#000000; fill-opacity:0.0; 
stroke:#000000; stroke-width:21200.000000; stroke-opacity:1; 
stroke-linecap:round; stroke-linejoin:round;">
</g>
<g style="fill:#000000; fill-opacity:0.0; 
stroke:#000000; stroke-width:150000.000000; stroke-opacity:1; 
stroke-linecap:round; stroke-linejoin:round;">
<text x="178002200.000000" y="171757200.000000"
textLength="150000.000000" font-size="2000000.000000" lengthAdjust="spacingAndGlyphs"
text-anchor="start" opacity="0"></text>
<g class="stroked-text"><desc></desc>
</g></g>
<g style="fill:#000000; fill-opacity:0.0; 
stroke:#000000; stroke-width:21200.000000; stroke-opacity:1; 
stroke-linecap:round; stroke-linejoin:round;">
</g>
<g style="fill:#000000; fill-opacity:0.0; 
stroke:#000000; stroke-width:150000.000000; stroke-opacity:1; 
stroke-linecap:round; stroke-linejoin:round;">
<text x="178002200.000000" y="168757200.000000"
textLength="150000.000000" font-size="2000000.000000" lengthAdjust="spacingAndGlyphs"
text-anchor="start" opacity="0"></text>
<g class="stroked-text"><desc></desc>
</g></g>
<g style="fill:#000000; fill-opacity:0.0; 
stroke:#000000; stroke-width:21200.000000; stroke-opacity:1; 
stroke-linecap:round; stroke-linejoin:round;">
</g>
<g style="fill:#000000; fill-opacity:0.0; 
stroke:#000000; stroke-width:150000.000000; stroke-opacity:1; 
stroke-linecap:round; stroke-linejoin:round;">
<path d="M197002200 191507200
L197002200 194507200
" />
</g>
<g style="fill:#000000; fill-opacity:0.0; 
stroke:#000000; stroke-width:21200.000000; stroke-opacity:1; 
stroke-linecap:round; stroke-linejoin:round;">
</g>
<g style="fill:#000000; fill-opacity:0.0; 
stroke:#000000; stroke-width:150000.000000; stroke-opacity:1; 
stroke-linecap:round; stroke-linejoin:round;">
<path d="M261002200 191507200
L261002200 198007200
" />
</g>
<g style="fill:#848484; fill-opacity:0.0; 
stroke:#848484; stroke-width:150000.000000; stroke-opacity:1; 
stroke-linecap:round; stroke-linejoin:round;">
</g>
<g style="fill:#848484; fill-opacity:0.0; 
stroke:#848484; stroke-width:75000.000000; stroke-opacity:1; 
stroke-linecap:round; stroke-linejoin:round;">
<g transform="rotate(-90.000000 114600000.000000 85750000.000000)">
<text x="114600000.000000" y="86000000.000000"
textLength="3007143.000000" font-size="666666.000000" lengthAdjust="spacingAndGlyphs"
text-anchor="middle" opacity="0">JST-XH</text>
</g>
<g class="stroked-text"><desc>JST-XH</desc>
<path d="M114326190 86916666
L114683333 86916666
L114754761 86940476
L114802380 86988095
L114826190 87059523
L114826190 87107142
" />
<path d="M114802380 86702380
L114826190 86630952
L114826190 86511904
L114802380 86464285
L114778571 86440476
L114730952 86416666
L114683333 86416666
L114635714 86440476
L114611904 86464285
L114588095 86511904
L114564285 86607142
L114540476 86654761
L114516666 86678571
L114469047 86702380
L114421428 86702380
L114373809 86678571
L114350000 86654761
L114326190 86607142
L114326190 86488095
L114350000 86416666
" />
<path d="M114326190 86273809
L114326190 85988095
" />
<path d="M114826190 86130952
L114326190 86130952
" />
<path d="M114635714 85821428
L114635714 85440476
" />
<path d="M114326190 85250000
L114826190 84916666
" />
<path d="M114326190 84916666
L114826190 85250000
" />
<path d="M114826190 84726190
L114326190 84726190
" />
<path d="M114564285 84726190
L114564285 84440476
" />
<path d="M114826190 84440476
L114326190 84440476
" />
</g><g transform="rotate(-90.000000 112700000.000000 85750000.000000)">
<text x="112700000.000000" y="86000000.000000"
textLength="954643.000000" font-size="666666.000000" lengthAdjust="spacingAndGlyphs"
text-anchor="middle" opacity="0">J2</text>
</g>
<g class="stroked-text"><desc>J2</desc>
<path d="M112426190 85916666
L112783333 85916666
L112854761 85940476
L112902380 85988095
L112926190 86059523
L112926190 86107142
" />
<path d="M112473809 85702380
L112450000 85678571
L112426190 85630952
L112426190 85511904
L112450000 85464285
L112473809 85440476
L112521428 85416666
L112569047 85416666
L112640476 85440476
L112926190 85726190
L112926190 85416666
" />
</g><g transform="rotate(-90.000000 114600000.000000 67750000.000000)">
<text x="114600000.000000" y="68000000.000000"
textLength="2954643.000000" font-size="666666.000000" lengthAdjust="spacingAndGlyphs"
text-anchor="middle" opacity="0">JST-XH</text>
</g>
<g class="stroked-text"><desc>JST-XH</desc>
<path d="M114326190 68916666
L114683333 68916666
L114754761 68940476
L114802380 68988095
L114826190 69059523
L114826190 69107142
" />
<path d="M114802380 68702380
L114826190 68630952
L114826190 68511904
L114802380 68464285
L114778571 68440476
L114730952 68416666
L114683333 68416666
L114635714 68440476
L114611904 68464285
L114588095 68511904
L114564285 68607142
L114540476 68654761
L114516666 68678571
L114469047 68702380
L114421428 68702380
L114373809 68678571
L114350000 68654761
L114326190 68607142
L114326190 68488095
L114350000 68416666
" />
<path d="M114326190 68273809
L114326190 67988095
" />
<path d="M114826190 68130952
L114326190 68130952
" />
<path d="M114635714 67821428
L114635714 67440476
" />
<path d="M114326190 67250000
L114826190 66916666
" />
<path d="M114326190 66916666
L114826190 67250000
" />
<path d="M114826190 66726190
L114326190 66726190
" />
<path d="M114564285 66726190
L114564285 66440476
" />
<path d="M114826190 66440476
L114326190 66440476
" />
</g><g transform="rotate(-90.000000 112700000.000000 67750000.000000)">
<text x="112700000.000000" y="68000000.000000"
textLength="954643.000000" font-size="666666.000000" lengthAdjust="spacingAndGlyphs"
text-anchor="middle" opacity="0">J3</text>
</g>
<g class="stroked-text"><desc>J3</desc>
<path d="M112426190 67916666
L112783333 67916666
L112854761 67940476
L112902380 67988095
L112926190 68059523
L112926190 68107142
" />
<path d="M112426190 67726190
L112426190 67416666
L112616666 67583333
L112616666 67511904
L112640476 67464285
L112664285 67440476
L112711904 67416666
L112830952 67416666
L112878571 67440476
L112902380 67464285
L112926190 67511904
L112926190 67654761
L112902380 67702380
L112878571 67726190
" />
</g><text x="108850000.000000" y="51850000.000000"
textLength="9240357.000000" font-size="666666.000000" lengthAdjust="spacingAndGlyphs"
text-anchor="middle" opacity="0">SolderJumper_2_Bridged</text>
<g class="stroked-text"><desc>SolderJumper_2_Bridged</desc>
<path d="M104373809 51802380
L104445238 51826190
L104564285 51826190
L104611904 51802380
L104635714 51778571
L104659523 51730952
L104659523 51683333
L104635714 51635714
L104611904 51611904
L104564285 51588095
L104469047 51564285
L104421428 51540476
L104397619 51516666
L104373809 51469047
L104373809 51421428
L104397619 51373809
L104421428 51350000
L104469047 51326190
L104588095 51326190
L104659523 51350000
" />
<path d="M104945238 51826190
L104897619 51802380
L104873809 51778571
L104850000 51730952
L104850000 51588095
L104873809 51540476
L104897619 51516666
L104945238 51492857
L105016666 51492857
L105064285 51516666
L105088095 51540476
L105111904 51588095
L105111904 51730952
L105088095 51778571
L105064285 51802380
L105016666 51826190
L104945238 51826190
" />
<path d="M105397619 51826190
L105350000 51802380
L105326190 51754761
L105326190 51326190
" />
<path d="M105802380 51826190
L105802380 51326190
" />
<path d="M105802380 51802380
L105754761 51826190
L105659523 51826190
L105611904 51802380
L105588095 51778571
L105564285 51730952
L105564285 51588095
L105588095 51540476
L105611904 51516666
L105659523 51492857
L105754761 51492857
L105802380 51516666
" />
<path d="M106230952 51802380
L106183333 51826190
L106088095 51826190
L106040476 51802380
L106016666 51754761
L106016666 51564285
L106040476 51516666
L106088095 51492857
L106183333 51492857
L106230952 51516666
L106254761 51564285
L106254761 51611904
L106016666 51659523
" />
<path d="M106469047 51826190
L106469047 51492857
" />
<path d="M106469047 51588095
L106492857 51540476
L106516666 51516666
L106564285 51492857
L106611904 51492857
" />
<path d="M106921428 51326190
L106921428 51683333
L106897619 51754761
L106850000 51802380
L106778571 51826190
L106730952 51826190
" />
<path d="M107373809 51492857
L107373809 51826190
" />
<path d="M107159523 51492857
L107159523 51754761
L107183333 51802380
L107230952 51826190
L107302380 51826190
L107350000 51802380
L107373809 51778571
" />
<path d="M107611904 51826190
L107611904 51492857
" />
<path d="M107611904 51540476
L107635714 51516666
L107683333 51492857
L107754761 51492857
L107802380 51516666
L107826190 51564285
L107826190 51826190
" />
<path d="M107826190 51564285
L107850000 51516666
L107897619 51492857
L107969047 51492857
L108016666 51516666
L108040476 51564285
L108040476 51826190
" />
<path d="M108278571 51492857
L108278571 51992857
" />
<path d="M108278571 51516666
L108326190 51492857
L108421428 51492857
L108469047 51516666
L108492857 51540476
L108516666 51588095
L108516666 51730952
L108492857 51778571
L108469047 51802380
L108421428 51826190
L108326190 51826190
L108278571 51802380
" />
<path d="M108921428 51802380
L108873809 51826190
L108778571 51826190
L108730952 51802380
L108707142 51754761
L108707142 51564285
L108730952 51516666
L108778571 51492857
L108873809 51492857
L108921428 51516666
L108945238 51564285
L108945238 51611904
L108707142 51659523
" />
<path d="M109159523 51826190
L109159523 51492857
" />
<path d="M109159523 51588095
L109183333 51540476
L109207142 51516666
L109254761 51492857
L109302380 51492857
" />
<path d="M109350000 51873809
L109730952 51873809
" />
<path d="M109826190 51373809
L109850000 51350000
L109897619 51326190
L110016666 51326190
L110064285 51350000
L110088095 51373809
L110111904 51421428
L110111904 51469047
L110088095 51540476
L109802380 51826190
L110111904 51826190
" />
<path d="M110207142 51873809
L110588095 51873809
" />
<path d="M110873809 51564285
L110945238 51588095
L110969047 51611904
L110992857 51659523
L110992857 51730952
L110969047 51778571
L110945238 51802380
L110897619 51826190
L110707142 51826190
L110707142 51326190
L110873809 51326190
L110921428 51350000
L110945238 51373809
L110969047 51421428
L110969047 51469047
L110945238 51516666
L110921428 51540476
L110873809 51564285
L110707142 51564285
" />
<path d="M111207142 51826190
L111207142 51492857
" />
<path d="M111207142 51588095
L111230952 51540476
L111254761 51516666
L111302380 51492857
L111350000 51492857
" />
<path d="M111516666 51826190
L111516666 51492857
" />
<path d="M111516666 51326190
L111492857 51350000
L111516666 51373809
L111540476 51350000
L111516666 51326190
L111516666 51373809
" />
<path d="M111969047 51826190
L111969047 51326190
" />
<path d="M111969047 51802380
L111921428 51826190
L111826190 51826190
L111778571 51802380
L111754761 51778571
L111730952 51730952
L111730952 51588095
L111754761 51540476
L111778571 51516666
L111826190 51492857
L111921428 51492857
L111969047 51516666
" />
<path d="M112421428 51492857
L112421428 51897619
L112397619 51945238
L112373809 51969047
L112326190 51992857
L112254761 51992857
L112207142 51969047
" />
<path d="M112421428 51802380
L112373809 51826190
L112278571 51826190
L112230952 51802380
L112207142 51778571
L112183333 51730952
L112183333 51588095
L112207142 51540476
L112230952 51516666
L112278571 51492857
L112373809 51492857
L112421428 51516666
" />
<path d="M112850000 51802380
L112802380 51826190
L112707142 51826190
L112659523 51802380
L112635714 51754761
L112635714 51564285
L112659523 51516666
L112707142 51492857
L112802380 51492857
L112850000 51516666
L112873809 51564285
L112873809 51611904
L112635714 51659523
" />
<path d="M113302380 51826190
L113302380 51326190
" />
<path d="M113302380 51802380
L113254761 51826190
L113159523 51826190
L113111904 51802380
L113088095 51778571
L113064285 51730952
L113064285 51588095
L113088095 51540476
L113111904 51516666
L113159523 51492857
L113254761 51492857
L113302380 51516666
" />
</g><text x="123810000.000000" y="86820000.000000"
textLength="2883214.000000" font-size="666666.000000" lengthAdjust="spacingAndGlyphs"
text-anchor="middle" opacity="0">74LS86</text>
<g class="stroked-text"><desc>74LS86</desc>
<path d="M122488571 86296190
L122821904 86296190
L122607619 86796190
" />
<path d="M123226666 86462857
L123226666 86796190
" />
<path d="M123107619 86272380
L122988571 86629523
L123298095 86629523
" />
<path d="M123726666 86796190
L123488571 86796190
L123488571 86296190
" />
<path d="M123869523 86772380
L123940952 86796190
L124060000 86796190
L124107619 86772380
L124131428 86748571
L124155238 86700952
L124155238 86653333
L124131428 86605714
L124107619 86581904
L124060000 86558095
L123964761 86534285
L123917142 86510476
L123893333 86486666
L123869523 86439047
L123869523 86391428
L123893333 86343809
L123917142 86320000
L123964761 86296190
L124083809 86296190
L124155238 86320000
" />
<path d="M124440952 86510476
L124393333 86486666
L124369523 86462857
L124345714 86415238
L124345714 86391428
L124369523 86343809
L124393333 86320000
L124440952 86296190
L124536190 86296190
L124583809 86320000
L124607619 86343809
L124631428 86391428
L124631428 86415238
L124607619 86462857
L124583809 86486666
L124536190 86510476
L124440952 86510476
L124393333 86534285
L124369523 86558095
L124345714 86605714
L124345714 86700952
L124369523 86748571
L124393333 86772380
L124440952 86796190
L124536190 86796190
L124583809 86772380
L124607619 86748571
L124631428 86700952
L124631428 86605714
L124607619 86558095
L124583809 86534285
L124536190 86510476
" />
<path d="M125060000 86296190
L124964761 86296190
L124917142 86320000
L124893333 86343809
L124845714 86415238
L124821904 86510476
L124821904 86700952
L124845714 86748571
L124869523 86772380
L124917142 86796190
L125012380 86796190
L125060000 86772380
L125083809 86748571
L125107619 86700952
L125107619 86581904
L125083809 86534285
L125060000 86510476
L125012380 86486666
L124917142 86486666
L124869523 86510476
L124845714 86534285
L124821904 86581904
" />
</g><text x="123810000.000000" y="76870000.000000"
textLength="1097500.000000" font-size="666666.000000" lengthAdjust="spacingAndGlyphs"
text-anchor="middle" opacity="0">U1</text>
<g class="stroked-text"><desc>U1</desc>
<path d="M123429047 76346190
L123429047 76750952
L123452857 76798571
L123476666 76822380
L123524285 76846190
L123619523 76846190
L123667142 76822380
L123690952 76798571
L123714761 76750952
L123714761 76346190
" />
<path d="M124214761 76846190
L123929047 76846190
" />
<path d="M124071904 76846190
L124071904 76346190
L124024285 76417619
L123976666 76465238
L123929047 76489047
" />
</g><text x="122580000.000000" y="61120000.000000"
textLength="1454643.000000" font-size="666666.000000" lengthAdjust="spacingAndGlyphs"
text-anchor="middle" opacity="0">10k</text>
<g class="stroked-text"><desc>10k</desc>
<path d="M122282380 61096190
L121996666 61096190
" />
<path d="M122139523 61096190
L122139523 60596190
L122091904 60667619
L122044285 60715238
L121996666 60739047
" />
<path d="M122591904 60596190
L122639523 60596190
L122687142 60620000
L122710952 60643809
L122734761 60691428
L122758571 60786666
L122758571 60905714
L122734761 61000952
L122710952 61048571
L122687142 61072380
L122639523 61096190
L122591904 61096190
L122544285 61072380
L122520476 61048571
L122496666 61000952
L122472857 60905714
L122472857 60786666
L122496666 60691428
L122520476 60643809
L122544285 60620000
L122591904 60596190
" />
<path d="M122972857 61096190
L122972857 60596190
" />
<path d="M123020476 60905714
L123163333 61096190
" />
<path d="M123163333 60762857
L122972857 60953333
" />
</g><text x="122580000.000000" y="58750000.000000"
textLength="1073690.000000" font-size="666666.000000" lengthAdjust="spacingAndGlyphs"
text-anchor="middle" opacity="0">R1</text>
<g class="stroked-text"><desc>R1</desc>
<path d="M122496666 58726190
L122330000 58488095
" />
<path d="M122210952 58726190
L122210952 58226190
L122401428 58226190
L122449047 58250000
L122472857 58273809
L122496666 58321428
L122496666 58392857
L122472857 58440476
L122449047 58464285
L122401428 58488095
L122210952 58488095
" />
<path d="M122972857 58726190
L122687142 58726190
" />
<path d="M122830000 58726190
L122830000 58226190
L122782380 58297619
L122734761 58345238
L122687142 58369047
" />
</g><text x="121250000.000000" y="85700000.000000"
textLength="2168929.000000" font-size="666666.000000" lengthAdjust="spacingAndGlyphs"
text-anchor="middle" opacity="0">0.1uF</text>
<g class="stroked-text"><desc>0.1uF</desc>
<path d="M120428571 85176190
L120476190 85176190
L120523809 85200000
L120547619 85223809
L120571428 85271428
L120595238 85366666
L120595238 85485714
L120571428 85580952
L120547619 85628571
L120523809 85652380
L120476190 85676190
L120428571 85676190
L120380952 85652380
L120357142 85628571
L120333333 85580952
L120309523 85485714
L120309523 85366666
L120333333 85271428
L120357142 85223809
L120380952 85200000
L120428571 85176190
" />
<path d="M120809523 85628571
L120833333 85652380
L120809523 85676190
L120785714 85652380
L120809523 85628571
L120809523 85676190
" />
<path d="M121309523 85676190
L121023809 85676190
" />
<path d="M121166666 85676190
L121166666 85176190
L121119047 85247619
L121071428 85295238
L121023809 85319047
" />
<path d="M121738095 85342857
L121738095 85676190
" />
<path d="M121523809 85342857
L121523809 85604761
L121547619 85652380
L121595238 85676190
L121666666 85676190
L121714285 85652380
L121738095 85628571
" />
<path d="M122142857 85414285
L121976190 85414285
" />
<path d="M121976190 85676190
L121976190 85176190
L122214285 85176190
" />
</g><text x="121250000.000000" y="87750000.000000"
textLength="1073690.000000" font-size="666666.000000" lengthAdjust="spacingAndGlyphs"
text-anchor="middle" opacity="0">C1</text>
<g class="stroked-text"><desc>C1</desc>
<path d="M121166666 87678571
L121142857 87702380
L121071428 87726190
L121023809 87726190
L120952380 87702380
L120904761 87654761
L120880952 87607142
L120857142 87511904
L120857142 87440476
L120880952 87345238
L120904761 87297619
L120952380 87250000
L121023809 87226190
L121071428 87226190
L121142857 87250000
L121166666 87273809
" />
<path d="M121642857 87726190
L121357142 87726190
" />
<path d="M121500000 87726190
L121500000 87226190
L121452380 87297619
L121404761 87345238
L121357142 87369047
" />
</g><g transform="rotate(-90.000000 89196660.000000 72935000.000000)">
<text x="89196660.000000" y="73185000.000000"
textLength="15645119.000000" font-size="666666.000000" lengthAdjust="spacingAndGlyphs"
text-anchor="middle" opacity="0">DB15_Female_HighDensity_MountingHoles</text>
</g>
<g class="stroked-text"><desc>DB15_Female_HighDensity_MountingHoles</desc>
<path d="M89422850 80589761
L88922850 80589761
L88922850 80470714
L88946660 80399285
L88994279 80351666
L89041898 80327857
L89137136 80304047
L89208564 80304047
L89303802 80327857
L89351421 80351666
L89399040 80399285
L89422850 80470714
L89422850 80589761
" />
<path d="M89160945 79923095
L89184755 79851666
L89208564 79827857
L89256183 79804047
L89327612 79804047
L89375231 79827857
L89399040 79851666
L89422850 79899285
L89422850 80089761
L88922850 80089761
L88922850 79923095
L88946660 79875476
L88970469 79851666
L89018088 79827857
L89065707 79827857
L89113326 79851666
L89137136 79875476
L89160945 79923095
L89160945 80089761
" />
<path d="M89422850 79327857
L89422850 79613571
" />
<path d="M89422850 79470714
L88922850 79470714
L88994279 79518333
L89041898 79565952
L89065707 79613571
" />
<path d="M88922850 78875476
L88922850 79113571
L89160945 79137380
L89137136 79113571
L89113326 79065952
L89113326 78946904
L89137136 78899285
L89160945 78875476
L89208564 78851666
L89327612 78851666
L89375231 78875476
L89399040 78899285
L89422850 78946904
L89422850 79065952
L89399040 79113571
L89375231 79137380
" />
<path d="M89470469 78756428
L89470469 78375476
" />
<path d="M89160945 78089761
L89160945 78256428
" />
<path d="M89422850 78256428
L88922850 78256428
L88922850 78018333
" />
<path d="M89399040 77637380
L89422850 77685000
L89422850 77780238
L89399040 77827857
L89351421 77851666
L89160945 77851666
L89113326 77827857
L89089517 77780238
L89089517 77685000
L89113326 77637380
L89160945 77613571
L89208564 77613571
L89256183 77851666
" />
<path d="M89422850 77399285
L89089517 77399285
" />
<path d="M89137136 77399285
L89113326 77375476
L89089517 77327857
L89089517 77256428
L89113326 77208809
L89160945 77185000
L89422850 77185000
" />
<path d="M89160945 77185000
L89113326 77161190
L89089517 77113571
L89089517 77042142
L89113326 76994523
L89160945 76970714
L89422850 76970714
" />
<path d="M89422850 76518333
L89160945 76518333
L89113326 76542142
L89089517 76589761
L89089517 76685000
L89113326 76732619
" />
<path d="M89399040 76518333
L89422850 76565952
L89422850 76685000
L89399040 76732619
L89351421 76756428
L89303802 76756428
L89256183 76732619
L89232374 76685000
L89232374 76565952
L89208564 76518333
" />
<path d="M89422850 76208809
L89399040 76256428
L89351421 76280238
L88922850 76280238
" />
<path d="M89399040 75827857
L89422850 75875476
L89422850 75970714
L89399040 76018333
L89351421 76042142
L89160945 76042142
L89113326 76018333
L89089517 75970714
L89089517 75875476
L89113326 75827857
L89160945 75804047
L89208564 75804047
L89256183 76042142
" />
<path d="M89470469 75708809
L89470469 75327857
" />
<path d="M89422850 75208809
L88922850 75208809
" />
<path d="M89160945 75208809
L89160945 74923095
" />
<path d="M89422850 74923095
L88922850 74923095
" />
<path d="M89422850 74685000
L89089517 74685000
" />
<path d="M88922850 74685000
L88946660 74708809
L88970469 74685000
L88946660 74661190
L88922850 74685000
L88970469 74685000
" />
<path d="M89089517 74232619
L89494279 74232619
L89541898 74256428
L89565707 74280238
L89589517 74327857
L89589517 74399285
L89565707 74446904
" />
<path d="M89399040 74232619
L89422850 74280238
L89422850 74375476
L89399040 74423095
L89375231 74446904
L89327612 74470714
L89184755 74470714
L89137136 74446904
L89113326 74423095
L89089517 74375476
L89089517 74280238
L89113326 74232619
" />
<path d="M89422850 73994523
L88922850 73994523
" />
<path d="M89422850 73780238
L89160945 73780238
L89113326 73804047
L89089517 73851666
L89089517 73923095
L89113326 73970714
L89137136 73994523
" />
<path d="M89422850 73542142
L88922850 73542142
L88922850 73423095
L88946660 73351666
L88994279 73304047
L89041898 73280238
L89137136 73256428
L89208564 73256428
L89303802 73280238
L89351421 73304047
L89399040 73351666
L89422850 73423095
L89422850 73542142
" />
<path d="M89399040 72851666
L89422850 72899285
L89422850 72994523
L89399040 73042142
L89351421 73065952
L89160945 73065952
L89113326 73042142
L89089517 72994523
L89089517 72899285
L89113326 72851666
L89160945 72827857
L89208564 72827857
L89256183 73065952
" />
<path d="M89089517 72613571
L89422850 72613571
" />
<path d="M89137136 72613571
L89113326 72589761
L89089517 72542142
L89089517 72470714
L89113326 72423095
L89160945 72399285
L89422850 72399285
" />
<path d="M89399040 72185000
L89422850 72137380
L89422850 72042142
L89399040 71994523
L89351421 71970714
L89327612 71970714
L89279993 71994523
L89256183 72042142
L89256183 72113571
L89232374 72161190
L89184755 72185000
L89160945 72185000
L89113326 72161190
L89089517 72113571
L89089517 72042142
L89113326 71994523
" />
<path d="M89422850 71756428
L89089517 71756428
" />
<path d="M88922850 71756428
L88946660 71780238
L88970469 71756428
L88946660 71732619
L88922850 71756428
L88970469 71756428
" />
<path d="M89089517 71589761
L89089517 71399285
" />
<path d="M88922850 71518333
L89351421 71518333
L89399040 71494523
L89422850 71446904
L89422850 71399285
" />
<path d="M89089517 71280238
L89422850 71161190
" />
<path d="M89089517 71042142
L89422850 71161190
L89541898 71208809
L89565707 71232619
L89589517 71280238
" />
<path d="M89470469 70970714
L89470469 70589761
" />
<path d="M89422850 70470714
L88922850 70470714
L89279993 70304047
L88922850 70137380
L89422850 70137380
" />
<path d="M89422850 69827857
L89399040 69875476
L89375231 69899285
L89327612 69923095
L89184755 69923095
L89137136 69899285
L89113326 69875476
L89089517 69827857
L89089517 69756428
L89113326 69708809
L89137136 69685000
L89184755 69661190
L89327612 69661190
L89375231 69685000
L89399040 69708809
L89422850 69756428
L89422850 69827857
" />
<path d="M89089517 69232619
L89422850 69232619
" />
<path d="M89089517 69446904
L89351421 69446904
L89399040 69423095
L89422850 69375476
L89422850 69304047
L89399040 69256428
L89375231 69232619
" />
<path d="M89089517 68994523
L89422850 68994523
" />
<path d="M89137136 68994523
L89113326 68970714
L89089517 68923095
L89089517 68851666
L89113326 68804047
L89160945 68780238
L89422850 68780238
" />
<path d="M89089517 68613571
L89089517 68423095
" />
<path d="M88922850 68542142
L89351421 68542142
L89399040 68518333
L89422850 68470714
L89422850 68423095
" />
<path d="M89422850 68256428
L89089517 68256428
" />
<path d="M88922850 68256428
L88946660 68280238
L88970469 68256428
L88946660 68232619
L88922850 68256428
L88970469 68256428
" />
<path d="M89089517 68018333
L89422850 68018333
" />
<path d="M89137136 68018333
L89113326 67994523
L89089517 67946904
L89089517 67875476
L89113326 67827857
L89160945 67804047
L89422850 67804047
" />
<path d="M89089517 67351666
L89494279 67351666
L89541898 67375476
L89565707 67399285
L89589517 67446904
L89589517 67518333
L89565707 67565952
" />
<path d="M89399040 67351666
L89422850 67399285
L89422850 67494523
L89399040 67542142
L89375231 67565952
L89327612 67589761
L89184755 67589761
L89137136 67565952
L89113326 67542142
L89089517 67494523
L89089517 67399285
L89113326 67351666
" />
<path d="M89422850 67113571
L88922850 67113571
" />
<path d="M89160945 67113571
L89160945 66827857
" />
<path d="M89422850 66827857
L88922850 66827857
" />
<path d="M89422850 66518333
L89399040 66565952
L89375231 66589761
L89327612 66613571
L89184755 66613571
L89137136 66589761
L89113326 66565952
L89089517 66518333
L89089517 66446904
L89113326 66399285
L89137136 66375476
L89184755 66351666
L89327612 66351666
L89375231 66375476
L89399040 66399285
L89422850 66446904
L89422850 66518333
" />
<path d="M89422850 66065952
L89399040 66113571
L89351421 66137380
L88922850 66137380
" />
<path d="M89399040 65685000
L89422850 65732619
L89422850 65827857
L89399040 65875476
L89351421 65899285
L89160945 65899285
L89113326 65875476
L89089517 65827857
L89089517 65732619
L89113326 65685000
L89160945 65661190
L89208564 65661190
L89256183 65899285
" />
<path d="M89399040 65470714
L89422850 65423095
L89422850 65327857
L89399040 65280238
L89351421 65256428
L89327612 65256428
L89279993 65280238
L89256183 65327857
L89256183 65399285
L89232374 65446904
L89184755 65470714
L89160945 65470714
L89113326 65446904
L89089517 65399285
L89089517 65327857
L89113326 65280238
" />
</g><g transform="rotate(-90.000000 93696660.000000 72935000.000000)">
<text x="93696660.000000" y="73185000.000000"
textLength="954643.000000" font-size="666666.000000" lengthAdjust="spacingAndGlyphs"
text-anchor="middle" opacity="0">J1</text>
</g>
<g class="stroked-text"><desc>J1</desc>
<path d="M93422850 73101666
L93779993 73101666
L93851421 73125476
L93899040 73173095
L93922850 73244523
L93922850 73292142
" />
<path d="M93922850 72601666
L93922850 72887380
" />
<path d="M93922850 72744523
L93422850 72744523
L93494279 72792142
L93541898 72839761
L93565707 72887380
" />
</g><g transform="rotate(-90.000000 114130000.000000 73580000.000000)">
<text x="114130000.000000" y="73830000.000000"
textLength="3168929.000000" font-size="666666.000000" lengthAdjust="spacingAndGlyphs"
text-anchor="middle" opacity="0">470Ohm</text>
</g>
<g class="stroked-text"><desc>470Ohm</desc>
<path d="M114022857 74782380
L114356190 74782380
" />
<path d="M113832380 74901428
L114189523 75020476
L114189523 74710952
" />
<path d="M113856190 74568095
L113856190 74234761
L114356190 74449047
" />
<path d="M113856190 73949047
L113856190 73901428
L113880000 73853809
L113903809 73830000
L113951428 73806190
L114046666 73782380
L114165714 73782380
L114260952 73806190
L114308571 73830000
L114332380 73853809
L114356190 73901428
L114356190 73949047
L114332380 73996666
L114308571 74020476
L114260952 74044285
L114165714 74068095
L114046666 74068095
L113951428 74044285
L113903809 74020476
L113880000 73996666
L113856190 73949047
" />
<path d="M113856190 73472857
L113856190 73377619
L113880000 73330000
L113927619 73282380
L114022857 73258571
L114189523 73258571
L114284761 73282380
L114332380 73330000
L114356190 73377619
L114356190 73472857
L114332380 73520476
L114284761 73568095
L114189523 73591904
L114022857 73591904
L113927619 73568095
L113880000 73520476
L113856190 73472857
" />
<path d="M114356190 73044285
L113856190 73044285
" />
<path d="M114356190 72830000
L114094285 72830000
L114046666 72853809
L114022857 72901428
L114022857 72972857
L114046666 73020476
L114070476 73044285
" />
<path d="M114356190 72591904
L114022857 72591904
" />
<path d="M114070476 72591904
L114046666 72568095
L114022857 72520476
L114022857 72449047
L114046666 72401428
L114094285 72377619
L114356190 72377619
" />
<path d="M114094285 72377619
L114046666 72353809
L114022857 72306190
L114022857 72234761
L114046666 72187142
L114094285 72163333
L114356190 72163333
" />
</g><g transform="rotate(-90.000000 116500000.000000 73580000.000000)">
<text x="116500000.000000" y="73830000.000000"
textLength="1073690.000000" font-size="666666.000000" lengthAdjust="spacingAndGlyphs"
text-anchor="middle" opacity="0">R3</text>
</g>
<g class="stroked-text"><desc>R3</desc>
<path d="M116726190 73663333
L116488095 73830000
" />
<path d="M116726190 73949047
L116226190 73949047
L116226190 73758571
L116250000 73710952
L116273809 73687142
L116321428 73663333
L116392857 73663333
L116440476 73687142
L116464285 73710952
L116488095 73758571
L116488095 73949047
" />
<path d="M116226190 73496666
L116226190 73187142
L116416666 73353809
L116416666 73282380
L116440476 73234761
L116464285 73210952
L116511904 73187142
L116630952 73187142
L116678571 73210952
L116702380 73234761
L116726190 73282380
L116726190 73425238
L116702380 73472857
L116678571 73496666
" />
</g><text x="122580000.000000" y="65120000.000000"
textLength="1454643.000000" font-size="666666.000000" lengthAdjust="spacingAndGlyphs"
text-anchor="middle" opacity="0">10k</text>
<g class="stroked-text"><desc>10k</desc>
<path d="M122282380 65096190
L121996666 65096190
" />
<path d="M122139523 65096190
L122139523 64596190
L122091904 64667619
L122044285 64715238
L121996666 64739047
" />
<path d="M122591904 64596190
L122639523 64596190
L122687142 64620000
L122710952 64643809
L122734761 64691428
L122758571 64786666
L122758571 64905714
L122734761 65000952
L122710952 65048571
L122687142 65072380
L122639523 65096190
L122591904 65096190
L122544285 65072380
L122520476 65048571
L122496666 65000952
L122472857 64905714
L122472857 64786666
L122496666 64691428
L122520476 64643809
L122544285 64620000
L122591904 64596190
" />
<path d="M122972857 65096190
L122972857 64596190
" />
<path d="M123020476 64905714
L123163333 65096190
" />
<path d="M123163333 64762857
L122972857 64953333
" />
</g><text x="122580000.000000" y="62750000.000000"
textLength="1073690.000000" font-size="666666.000000" lengthAdjust="spacingAndGlyphs"
text-anchor="middle" opacity="0">R2</text>
<g class="stroked-text"><desc>R2</desc>
<path d="M122496666 62726190
L122330000 62488095
" />
<path d="M122210952 62726190
L122210952 62226190
L122401428 62226190
L122449047 62250000
L122472857 62273809
L122496666 62321428
L122496666 62392857
L122472857 62440476
L122449047 62464285
L122401428 62488095
L122210952 62488095
" />
<path d="M122687142 62273809
L122710952 62250000
L122758571 62226190
L122877619 62226190
L122925238 62250000
L122949047 62273809
L122972857 62321428
L122972857 62369047
L122949047 62440476
L122663333 62726190
L122972857 62726190
" />
</g></g>
<g style="fill:#848484; fill-opacity:0.0; 
stroke:#848484; stroke-width:100000.000000; stroke-opacity:1; 
stroke-linecap:round; stroke-linejoin:round;">
<path d="M108650000 87000000
L107650000 86375000
" />
<path d="M113400000 89450000
L113400000 82050000
" />
<path d="M107650000 82050000
L107650000 89450000
" />
<path d="M113400000 82050000
L107650000 82050000
" />
<path d="M107650000 89450000
L113400000 89450000
" />
<path d="M107650000 87625000
L108650000 87000000
" />
<path d="M107650000 77125000
L108650000 76500000
" />
<path d="M108650000 76500000
L107650000 75875000
" />
<path d="M113400000 56550000
L107650000 56550000
" />
<path d="M107650000 78950000
L113400000 78950000
" />
<path d="M107650000 56550000
L107650000 78950000
" />
<path d="M113400000 78950000
L113400000 56550000
" />
<path d="M120635000 85510000
L120635000 68730000
" />
<path d="M120635000 68730000
L121635000 67730000
" />
<path d="M126985000 85510000
L120635000 85510000
" />
<path d="M126985000 67730000
L126985000 85510000
" />
<path d="M121635000 67730000
L126985000 67730000
" />
<path d="M125730000 59750000
L125730000 57250000
" />
<path d="M125730000 57250000
L119430000 57250000
" />
<path d="M119430000 57250000
L119430000 59750000
" />
<path d="M119430000 59750000
L125730000 59750000
" />
<path d="M117500000 58500000
L119430000 58500000
" />
<path d="M127660000 58500000
L125730000 58500000
" />
<path d="M119750000 86700000
L119750000 88300000
" />
<path d="M119750000 88300000
L122750000 88300000
" />
<path d="M122750000 86700000
L119750000 86700000
" />
<path d="M122750000 88300000
L122750000 86700000
" />
<path d="M96696660 57935000
L91696660 57935000
" />
<path d="M97096660 88360000
L105696660 88360000
" />
<path d="M96696660 82935000
L91696660 82935000
" />
<path d="M97096660 57510000
L97096660 88360000
" />
<path d="M91696660 87935000
L96696660 87935000
" />
<path d="M97096660 57510000
L96696660 57510000
" />
<path d="M96696660 57510000
L96696660 88360000
" />
<path d="M90696660 81085000
L96696660 81085000
" />
<path d="M97096660 87035000
L102036660 87035000
" />
<path d="M105696660 88360000
L105696660 57510000
" />
<path d="M96696660 62935000
L96696660 57935000
" />
<path d="M91696660 62935000
L96696660 62935000
" />
<path d="M91696660 57935000
L91696660 62935000
" />
<path d="M96696660 88360000
L97096660 88360000
" />
<path d="M96696660 87935000
L96696660 82935000
" />
<path d="M97096660 83835000
L102036660 83835000
" />
<path d="M97096660 62035000
L102036660 62035000
" />
<path d="M90696660 64785000
L90696660 81085000
" />
<path d="M105696660 57510000
L97096660 57510000
" />
<path d="M97096660 58835000
L102036660 58835000
" />
<path d="M96696660 81085000
L96696660 64785000
" />
<path d="M91696660 82935000
L91696660 87935000
" />
<path d="M97096660 88360000
L97096660 57510000
" />
<path d="M96696660 64785000
L90696660 64785000
" />
<path d="M102036660.000000 62035000.000000 A1600000.000000 1600000.000000 0.0 0 0 102036660.000000 58835000.000000" />
<path d="M102036660.000000 87035000.000000 A1600000.000000 1600000.000000 0.0 0 0 102036660.000000 83835000.000000" />
<path d="M116500000 68500000
L116500000 70430000
" />
<path d="M117750000 76730000
L117750000 70430000
" />
<path d="M115250000 76730000
L117750000 76730000
" />
<path d="M116500000 78660000
L116500000 76730000
" />
<path d="M115250000 70430000
L115250000 76730000
" />
<path d="M117750000 70430000
L115250000 70430000
" />
<path d="M125730000 61250000
L119430000 61250000
" />
<path d="M119430000 63750000
L125730000 63750000
" />
<path d="M127660000 62500000
L125730000 62500000
" />
<path d="M119430000 61250000
L119430000 63750000
" />
<path d="M125730000 63750000
L125730000 61250000
" />
<path d="M117500000 62500000
L119430000 62500000
" />
<g >
</g>
<g >
</g>
<g >
</g>
<g >
</g>
<g >
</g>
<g >
</g>
<g >
</g>
<g >
</g>
<g >
</g>
<g >
</g>
<g >
</g>
<g >
</g>
<g >
</g>
<g >
</g>
<g >
</g>
<g >
</g>
<g >
</g>
</g>
<g style="fill:#000000; fill-opacity:0.0; 
stroke:#000000; stroke-width:100000.000000; stroke-opacity:1; 
stroke-linecap:round; stroke-linejoin:round;">
</g>
<g style="fill:#C2C200; fill-opacity:0.0; 
stroke:#C2C200; stroke-width:100000.000000; stroke-opacity:1; 
stroke-linecap:round; stroke-linejoin:round;">
</g>
<g style="fill:#C2C200; fill-opacity:0.0; 
stroke:#C2C200; stroke-width:50000.000000; stroke-opacity:1; 
stroke-linecap:round; stroke-linejoin:round;">
<path d="M101000000 49000000
L102000000 49000000
" />
<path d="M101000000 97000000
L102000000 97000000
" />
<path d="M130000000 92000000
L130000000 93000000
" />
<path d="M97000000 92000000
L97000000 93000000
" />
<path d="M101000000.000000 49000000.000000 A4000000.000000 4000000.000000 0.0 0 0 97000000.000000 53000000.000000" />
<path d="M130000000.000000 53000000.000000 A4000000.000000 4000000.000000 0.0 0 0 126000000.000000 49000000.000000" />
<path d="M126000000.000000 97000000.000000 A4000000.000000 4000000.000000 0.0 0 0 130000000.000000 93000000.000000" />
<path d="M97000000.000000 93000000.000000 A4000000.000000 4000000.000000 0.0 0 0 101000000.000000 97000000.000000" />
<path d="M97000000 53000000
L97000000 92000000
" />
<path d="M102000000 49000000
L126000000 49000000
" />
<path d="M102000000 97000000
L126000000 97000000
" />
<path d="M130000000 53000000
L130000000 92000000
" />
<g >
</g>
<g >
</g>
<g >
</g>
<g >
</g>
<g >
</g>
<g >
</g>
<g >
</g>
<g >
</g>
<g >
</g>
<g >
</g>
<g >
</g>
<g >
</g>
<g >
</g>
<g >
</g>
<g >
</g>
<g >
</g>
<g >
</g>
</g> 
</svg>
