M48
; DRILL file {KiCad (6.0.1)} date Sun Jan 23 22:03:42 2022
; FORMAT={-:-/ absolute / inch / decimal}
; #@! TF.CreationDate,2022-01-23T22:03:42-08:00
; #@! TF.GenerationSoftware,Kicad,Pcbnew,(6.0.1)
; #@! TF.FileFunction,Plated,1,2,PTH
FMAT,2
INCH
; #@! TA.AperFunction,Plated,PTH,ComponentDrill
T1C0.0315
; #@! TA.AperFunction,Plated,PTH,ComponentDrill
T2C0.0374
; #@! TA.AperFunction,Plated,PTH,ComponentDrill
T3C0.0394
; #@! TA.AperFunction,Plated,PTH,ComponentDrill
T4C0.1260
%
G90
G05
T1
X4.5866Y-2.6969
X4.5866Y-3.0969
X4.626Y-2.3031
X4.626Y-2.4606
X4.7244Y-2.7165
X4.7244Y-2.8165
X4.7244Y-2.9165
X4.7244Y-3.0165
X4.7244Y-3.1165
X4.7244Y-3.2165
X4.7244Y-3.3165
X4.7244Y-3.4449
X4.8228Y-3.4449
X5.0244Y-2.7165
X5.0244Y-2.8165
X5.0244Y-2.9165
X5.0244Y-3.0165
X5.0244Y-3.1165
X5.0244Y-3.2165
X5.0244Y-3.3165
X5.026Y-2.3031
X5.026Y-2.4606
T2
X4.3307Y-2.3228
X4.3307Y-2.4213
X4.3307Y-2.5197
X4.3307Y-2.6181
X4.3307Y-2.7165
X4.3307Y-2.815
X4.3307Y-2.9134
X4.3307Y-3.0118
T3
X3.942Y-2.6807
X3.942Y-2.7709
X3.942Y-2.861
X3.942Y-2.9512
X3.942Y-3.0413
X4.0199Y-2.7258
X4.0199Y-2.8159
X4.0199Y-2.9061
X4.0199Y-2.9963
X4.0199Y-3.0864
X4.0979Y-2.6807
X4.0979Y-2.7709
X4.0979Y-2.861
X4.0979Y-2.9512
X4.0979Y-3.0413
X4.3307Y-3.3268
X4.3307Y-3.4252
T4
X4.0172Y-2.3793
X4.0172Y-3.3636
T0
M30
