%TF.GenerationSoftware,KiCad,Pcbnew,(6.0.1)*%
%TF.CreationDate,2022-01-23T22:03:48-08:00*%
%TF.ProjectId,gbsc-sync-combiner-v3,67627363-2d73-4796-9e63-2d636f6d6269,rev?*%
%TF.SameCoordinates,Original*%
%TF.FileFunction,Soldermask,Top*%
%TF.FilePolarity,Negative*%
%FSLAX46Y46*%
G04 Gerber Fmt 4.6, Leading zero omitted, Abs format (unit mm)*
G04 Created by KiCad (PCBNEW (6.0.1)) date 2022-01-23 22:03:48*
%MOMM*%
%LPD*%
G01*
G04 APERTURE LIST*
G04 Aperture macros list*
%AMRoundRect*
0 Rectangle with rounded corners*
0 $1 Rounding radius*
0 $2 $3 $4 $5 $6 $7 $8 $9 X,Y pos of 4 corners*
0 Add a 4 corners polygon primitive as box body*
4,1,4,$2,$3,$4,$5,$6,$7,$8,$9,$2,$3,0*
0 Add four circle primitives for the rounded corners*
1,1,$1+$1,$2,$3*
1,1,$1+$1,$4,$5*
1,1,$1+$1,$6,$7*
1,1,$1+$1,$8,$9*
0 Add four rect primitives between the rounded corners*
20,1,$1+$1,$2,$3,$4,$5,0*
20,1,$1+$1,$4,$5,$6,$7,0*
20,1,$1+$1,$6,$7,$8,$9,0*
20,1,$1+$1,$8,$9,$2,$3,0*%
G04 Aperture macros list end*
%ADD10C,0.100000*%
%ADD11RoundRect,0.250000X0.750000X-0.600000X0.750000X0.600000X-0.750000X0.600000X-0.750000X-0.600000X0*%
%ADD12O,2.000000X1.700000*%
%ADD13RoundRect,0.250000X0.725000X-0.600000X0.725000X0.600000X-0.725000X0.600000X-0.725000X-0.600000X0*%
%ADD14O,1.950000X1.700000*%
%ADD15R,1.000000X1.500000*%
%ADD16R,1.600000X1.600000*%
%ADD17O,1.600000X1.600000*%
%ADD18C,1.600000*%
%ADD19C,3.200000*%
%ADD20C,4.000000*%
G04 APERTURE END LIST*
D10*
X109050000Y-54000000D02*
X108600000Y-54000000D01*
X108600000Y-54000000D02*
X108600000Y-53000000D01*
X108600000Y-53000000D02*
X109050000Y-53000000D01*
X109050000Y-53000000D02*
X109050000Y-54000000D01*
G36*
X109050000Y-54000000D02*
G01*
X108600000Y-54000000D01*
X108600000Y-53000000D01*
X109050000Y-53000000D01*
X109050000Y-54000000D01*
G37*
X109050000Y-54000000D02*
X108600000Y-54000000D01*
X108600000Y-53000000D01*
X109050000Y-53000000D01*
X109050000Y-54000000D01*
D11*
%TO.C,J2*%
X110000000Y-87000000D03*
D12*
X110000000Y-84500000D03*
%TD*%
D13*
%TO.C,J3*%
X110000000Y-76500000D03*
D14*
X110000000Y-74000000D03*
X110000000Y-71500000D03*
X110000000Y-69000000D03*
X110000000Y-66500000D03*
X110000000Y-64000000D03*
X110000000Y-61500000D03*
X110000000Y-59000000D03*
%TD*%
D15*
%TO.C,JP1*%
X109500000Y-53500000D03*
X108200000Y-53500000D03*
%TD*%
D16*
%TO.C,U1*%
X120000000Y-69000000D03*
D17*
X120000000Y-71540000D03*
X120000000Y-74080000D03*
X120000000Y-76620000D03*
X120000000Y-79160000D03*
X120000000Y-81700000D03*
X120000000Y-84240000D03*
X127620000Y-84240000D03*
X127620000Y-81700000D03*
X127620000Y-79160000D03*
X127620000Y-76620000D03*
X127620000Y-74080000D03*
X127620000Y-71540000D03*
X127620000Y-69000000D03*
%TD*%
D18*
%TO.C,R1*%
X117500000Y-58500000D03*
D17*
X127660000Y-58500000D03*
%TD*%
D18*
%TO.C,C1*%
X122500000Y-87500000D03*
X120000000Y-87500000D03*
%TD*%
D19*
%TO.C,H1*%
X101000000Y-53000000D03*
%TD*%
%TO.C,H2*%
X101000000Y-93000000D03*
%TD*%
%TO.C,H3*%
X126000000Y-93000000D03*
%TD*%
%TO.C,H4*%
X126000000Y-53000000D03*
%TD*%
D20*
%TO.C,J1*%
X102036660Y-60435000D03*
X102036660Y-85435000D03*
D16*
X104086660Y-77250000D03*
D18*
X104086660Y-74960000D03*
X104086660Y-72670000D03*
X104086660Y-70380000D03*
X104086660Y-68090000D03*
X102106660Y-78395000D03*
X102106660Y-76105000D03*
X102106660Y-73815000D03*
X102106660Y-71525000D03*
X102106660Y-69235000D03*
X100126660Y-77250000D03*
X100126660Y-74960000D03*
X100126660Y-72670000D03*
X100126660Y-70380000D03*
X100126660Y-68090000D03*
%TD*%
%TO.C,R3*%
X116500000Y-68500000D03*
D17*
X116500000Y-78660000D03*
%TD*%
D18*
%TO.C,R2*%
X117500000Y-62500000D03*
D17*
X127660000Y-62500000D03*
%TD*%
M02*
