%TF.GenerationSoftware,KiCad,Pcbnew,(6.0.1)*%
%TF.CreationDate,2022-01-23T22:03:48-08:00*%
%TF.ProjectId,gbsc-sync-combiner-v3,67627363-2d73-4796-9e63-2d636f6d6269,rev?*%
%TF.SameCoordinates,Original*%
%TF.FileFunction,Copper,L2,Bot*%
%TF.FilePolarity,Positive*%
%FSLAX46Y46*%
G04 Gerber Fmt 4.6, Leading zero omitted, Abs format (unit mm)*
G04 Created by KiCad (PCBNEW (6.0.1)) date 2022-01-23 22:03:48*
%MOMM*%
%LPD*%
G01*
G04 APERTURE LIST*
G04 Aperture macros list*
%AMRoundRect*
0 Rectangle with rounded corners*
0 $1 Rounding radius*
0 $2 $3 $4 $5 $6 $7 $8 $9 X,Y pos of 4 corners*
0 Add a 4 corners polygon primitive as box body*
4,1,4,$2,$3,$4,$5,$6,$7,$8,$9,$2,$3,0*
0 Add four circle primitives for the rounded corners*
1,1,$1+$1,$2,$3*
1,1,$1+$1,$4,$5*
1,1,$1+$1,$6,$7*
1,1,$1+$1,$8,$9*
0 Add four rect primitives between the rounded corners*
20,1,$1+$1,$2,$3,$4,$5,0*
20,1,$1+$1,$4,$5,$6,$7,0*
20,1,$1+$1,$6,$7,$8,$9,0*
20,1,$1+$1,$8,$9,$2,$3,0*%
G04 Aperture macros list end*
%TA.AperFunction,ComponentPad*%
%ADD10RoundRect,0.250000X0.750000X-0.600000X0.750000X0.600000X-0.750000X0.600000X-0.750000X-0.600000X0*%
%TD*%
%TA.AperFunction,ComponentPad*%
%ADD11O,2.000000X1.700000*%
%TD*%
%TA.AperFunction,ComponentPad*%
%ADD12RoundRect,0.250000X0.725000X-0.600000X0.725000X0.600000X-0.725000X0.600000X-0.725000X-0.600000X0*%
%TD*%
%TA.AperFunction,ComponentPad*%
%ADD13O,1.950000X1.700000*%
%TD*%
%TA.AperFunction,ComponentPad*%
%ADD14R,1.600000X1.600000*%
%TD*%
%TA.AperFunction,ComponentPad*%
%ADD15O,1.600000X1.600000*%
%TD*%
%TA.AperFunction,ComponentPad*%
%ADD16C,1.600000*%
%TD*%
%TA.AperFunction,ComponentPad*%
%ADD17C,4.000000*%
%TD*%
G04 APERTURE END LIST*
D10*
%TO.P,J2,1*%
%TO.N,GND*%
X110000000Y-87000000D03*
D11*
%TO.P,J2,2*%
%TO.N,+5V*%
X110000000Y-84500000D03*
%TD*%
D12*
%TO.P,J3,1*%
%TO.N,Red*%
X110000000Y-76500000D03*
D13*
%TO.P,J3,2*%
%TO.N,Green*%
X110000000Y-74000000D03*
%TO.P,J3,3*%
%TO.N,Blue*%
X110000000Y-71500000D03*
%TO.P,J3,4*%
%TO.N,Net-(J3-Pad4)*%
X110000000Y-69000000D03*
%TO.P,J3,5*%
%TO.N,Net-(J3-Pad5)*%
X110000000Y-66500000D03*
%TO.P,J3,6*%
%TO.N,Net-(J3-Pad6)*%
X110000000Y-64000000D03*
%TO.P,J3,7*%
%TO.N,GND*%
X110000000Y-61500000D03*
%TO.P,J3,8*%
X110000000Y-59000000D03*
%TD*%
D14*
%TO.P,U1,1*%
%TO.N,/HSync*%
X120000000Y-69000000D03*
D15*
%TO.P,U1,2*%
%TO.N,/VSync*%
X120000000Y-71540000D03*
%TO.P,U1,3*%
%TO.N,Net-(U1-Pad3)*%
X120000000Y-74080000D03*
%TO.P,U1,4*%
X120000000Y-76620000D03*
%TO.P,U1,5*%
%TO.N,+5V*%
X120000000Y-79160000D03*
%TO.P,U1,6*%
%TO.N,/CSync*%
X120000000Y-81700000D03*
%TO.P,U1,7*%
%TO.N,GND*%
X120000000Y-84240000D03*
%TO.P,U1,8*%
%TO.N,Net-(U1-Pad8)*%
X127620000Y-84240000D03*
%TO.P,U1,9*%
%TO.N,+5V*%
X127620000Y-81700000D03*
%TO.P,U1,10*%
X127620000Y-79160000D03*
%TO.P,U1,11*%
%TO.N,Net-(U1-Pad11)*%
X127620000Y-76620000D03*
%TO.P,U1,12*%
%TO.N,+5V*%
X127620000Y-74080000D03*
%TO.P,U1,13*%
X127620000Y-71540000D03*
%TO.P,U1,14*%
X127620000Y-69000000D03*
%TD*%
D16*
%TO.P,R1,1*%
%TO.N,/HSync*%
X117500000Y-58500000D03*
D15*
%TO.P,R1,2*%
%TO.N,+5V*%
X127660000Y-58500000D03*
%TD*%
D16*
%TO.P,C1,1*%
%TO.N,+5V*%
X122500000Y-87500000D03*
%TO.P,C1,2*%
%TO.N,GND*%
X120000000Y-87500000D03*
%TD*%
D17*
%TO.P,J1,0*%
%TO.N,Net-(J1-Pad0)*%
X102036660Y-60435000D03*
X102036660Y-85435000D03*
D14*
%TO.P,J1,1*%
%TO.N,Red*%
X104086660Y-77250000D03*
D16*
%TO.P,J1,2*%
%TO.N,Green*%
X104086660Y-74960000D03*
%TO.P,J1,3*%
%TO.N,Blue*%
X104086660Y-72670000D03*
%TO.P,J1,4*%
%TO.N,Net-(J1-Pad4)*%
X104086660Y-70380000D03*
%TO.P,J1,5*%
%TO.N,GND*%
X104086660Y-68090000D03*
%TO.P,J1,6*%
X102106660Y-78395000D03*
%TO.P,J1,7*%
X102106660Y-76105000D03*
%TO.P,J1,8*%
X102106660Y-73815000D03*
%TO.P,J1,9*%
%TO.N,Net-(J1-Pad9)*%
X102106660Y-71525000D03*
%TO.P,J1,10*%
%TO.N,GND*%
X102106660Y-69235000D03*
%TO.P,J1,11*%
%TO.N,Net-(J1-Pad11)*%
X100126660Y-77250000D03*
%TO.P,J1,12*%
%TO.N,Net-(J1-Pad12)*%
X100126660Y-74960000D03*
%TO.P,J1,13*%
%TO.N,/HSync*%
X100126660Y-72670000D03*
%TO.P,J1,14*%
%TO.N,/VSync*%
X100126660Y-70380000D03*
%TO.P,J1,15*%
%TO.N,Net-(J1-Pad15)*%
X100126660Y-68090000D03*
%TD*%
%TO.P,R3,1*%
%TO.N,Net-(J3-Pad4)*%
X116500000Y-68500000D03*
D15*
%TO.P,R3,2*%
%TO.N,/CSync*%
X116500000Y-78660000D03*
%TD*%
D16*
%TO.P,R2,1*%
%TO.N,/VSync*%
X117500000Y-62500000D03*
D15*
%TO.P,R2,2*%
%TO.N,+5V*%
X127660000Y-62500000D03*
%TD*%
M02*
