%TF.GenerationSoftware,KiCad,Pcbnew,(6.0.1)*%
%TF.CreationDate,2022-01-23T22:03:48-08:00*%
%TF.ProjectId,gbsc-sync-combiner-v3,67627363-2d73-4796-9e63-2d636f6d6269,rev?*%
%TF.SameCoordinates,Original*%
%TF.FileFunction,Legend,Top*%
%TF.FilePolarity,Positive*%
%FSLAX46Y46*%
G04 Gerber Fmt 4.6, Leading zero omitted, Abs format (unit mm)*
G04 Created by KiCad (PCBNEW (6.0.1)) date 2022-01-23 22:03:48*
%MOMM*%
%LPD*%
G01*
G04 APERTURE LIST*
%ADD10C,0.127000*%
%ADD11C,0.076200*%
%ADD12C,0.075000*%
%ADD13C,0.120000*%
%ADD14C,0.010000*%
G04 APERTURE END LIST*
D10*
X114594714Y-70017857D02*
X114231857Y-70271857D01*
X114594714Y-70453285D02*
X113832714Y-70453285D01*
X113832714Y-70163000D01*
X113869000Y-70090428D01*
X113905285Y-70054142D01*
X113977857Y-70017857D01*
X114086714Y-70017857D01*
X114159285Y-70054142D01*
X114195571Y-70090428D01*
X114231857Y-70163000D01*
X114231857Y-70453285D01*
X113869000Y-69292142D02*
X113832714Y-69364714D01*
X113832714Y-69473571D01*
X113869000Y-69582428D01*
X113941571Y-69655000D01*
X114014142Y-69691285D01*
X114159285Y-69727571D01*
X114268142Y-69727571D01*
X114413285Y-69691285D01*
X114485857Y-69655000D01*
X114558428Y-69582428D01*
X114594714Y-69473571D01*
X114594714Y-69401000D01*
X114558428Y-69292142D01*
X114522142Y-69255857D01*
X114268142Y-69255857D01*
X114268142Y-69401000D01*
X114195571Y-68675285D02*
X114231857Y-68566428D01*
X114268142Y-68530142D01*
X114340714Y-68493857D01*
X114449571Y-68493857D01*
X114522142Y-68530142D01*
X114558428Y-68566428D01*
X114594714Y-68639000D01*
X114594714Y-68929285D01*
X113832714Y-68929285D01*
X113832714Y-68675285D01*
X113869000Y-68602714D01*
X113905285Y-68566428D01*
X113977857Y-68530142D01*
X114050428Y-68530142D01*
X114123000Y-68566428D01*
X114159285Y-68602714D01*
X114195571Y-68675285D01*
X114195571Y-68929285D01*
X114558428Y-68203571D02*
X114594714Y-68094714D01*
X114594714Y-67913285D01*
X114558428Y-67840714D01*
X114522142Y-67804428D01*
X114449571Y-67768142D01*
X114377000Y-67768142D01*
X114304428Y-67804428D01*
X114268142Y-67840714D01*
X114231857Y-67913285D01*
X114195571Y-68058428D01*
X114159285Y-68131000D01*
X114123000Y-68167285D01*
X114050428Y-68203571D01*
X113977857Y-68203571D01*
X113905285Y-68167285D01*
X113869000Y-68131000D01*
X113832714Y-68058428D01*
X113832714Y-67877000D01*
X113869000Y-67768142D01*
X113832714Y-66715857D02*
X113832714Y-66570714D01*
X113869000Y-66498142D01*
X113941571Y-66425571D01*
X114086714Y-66389285D01*
X114340714Y-66389285D01*
X114485857Y-66425571D01*
X114558428Y-66498142D01*
X114594714Y-66570714D01*
X114594714Y-66715857D01*
X114558428Y-66788428D01*
X114485857Y-66861000D01*
X114340714Y-66897285D01*
X114086714Y-66897285D01*
X113941571Y-66861000D01*
X113869000Y-66788428D01*
X113832714Y-66715857D01*
X113832714Y-66062714D02*
X114449571Y-66062714D01*
X114522142Y-66026428D01*
X114558428Y-65990142D01*
X114594714Y-65917571D01*
X114594714Y-65772428D01*
X114558428Y-65699857D01*
X114522142Y-65663571D01*
X114449571Y-65627285D01*
X113832714Y-65627285D01*
X113832714Y-65373285D02*
X113832714Y-64937857D01*
X114594714Y-65155571D02*
X113832714Y-65155571D01*
X98877285Y-89844714D02*
X98623285Y-89481857D01*
X98441857Y-89844714D02*
X98441857Y-89082714D01*
X98732142Y-89082714D01*
X98804714Y-89119000D01*
X98841000Y-89155285D01*
X98877285Y-89227857D01*
X98877285Y-89336714D01*
X98841000Y-89409285D01*
X98804714Y-89445571D01*
X98732142Y-89481857D01*
X98441857Y-89481857D01*
X99603000Y-89119000D02*
X99530428Y-89082714D01*
X99421571Y-89082714D01*
X99312714Y-89119000D01*
X99240142Y-89191571D01*
X99203857Y-89264142D01*
X99167571Y-89409285D01*
X99167571Y-89518142D01*
X99203857Y-89663285D01*
X99240142Y-89735857D01*
X99312714Y-89808428D01*
X99421571Y-89844714D01*
X99494142Y-89844714D01*
X99603000Y-89808428D01*
X99639285Y-89772142D01*
X99639285Y-89518142D01*
X99494142Y-89518142D01*
X100219857Y-89445571D02*
X100328714Y-89481857D01*
X100365000Y-89518142D01*
X100401285Y-89590714D01*
X100401285Y-89699571D01*
X100365000Y-89772142D01*
X100328714Y-89808428D01*
X100256142Y-89844714D01*
X99965857Y-89844714D01*
X99965857Y-89082714D01*
X100219857Y-89082714D01*
X100292428Y-89119000D01*
X100328714Y-89155285D01*
X100365000Y-89227857D01*
X100365000Y-89300428D01*
X100328714Y-89373000D01*
X100292428Y-89409285D01*
X100219857Y-89445571D01*
X99965857Y-89445571D01*
X100727857Y-89844714D02*
X100727857Y-89082714D01*
X100727857Y-89445571D02*
X101163285Y-89445571D01*
X101163285Y-89844714D02*
X101163285Y-89082714D01*
X101417285Y-89082714D02*
X101671285Y-89844714D01*
X101925285Y-89082714D01*
X102759857Y-89844714D02*
X102759857Y-89082714D01*
X103122714Y-89844714D02*
X103122714Y-89082714D01*
X103558142Y-89844714D01*
X103558142Y-89082714D01*
D11*
X99658387Y-55838782D02*
X99658387Y-55381582D01*
X99810787Y-55708154D01*
X99963187Y-55381582D01*
X99963187Y-55838782D01*
X100246215Y-55838782D02*
X100202672Y-55817011D01*
X100180901Y-55795239D01*
X100159130Y-55751696D01*
X100159130Y-55621068D01*
X100180901Y-55577525D01*
X100202672Y-55555754D01*
X100246215Y-55533982D01*
X100311530Y-55533982D01*
X100355072Y-55555754D01*
X100376844Y-55577525D01*
X100398615Y-55621068D01*
X100398615Y-55751696D01*
X100376844Y-55795239D01*
X100355072Y-55817011D01*
X100311530Y-55838782D01*
X100246215Y-55838782D01*
X100790501Y-55533982D02*
X100790501Y-55838782D01*
X100594558Y-55533982D02*
X100594558Y-55773468D01*
X100616330Y-55817011D01*
X100659872Y-55838782D01*
X100725187Y-55838782D01*
X100768730Y-55817011D01*
X100790501Y-55795239D01*
X101008215Y-55533982D02*
X101008215Y-55838782D01*
X101008215Y-55577525D02*
X101029987Y-55555754D01*
X101073530Y-55533982D01*
X101138844Y-55533982D01*
X101182387Y-55555754D01*
X101204158Y-55599296D01*
X101204158Y-55838782D01*
X101356558Y-55533982D02*
X101530730Y-55533982D01*
X101421872Y-55381582D02*
X101421872Y-55773468D01*
X101443644Y-55817011D01*
X101487187Y-55838782D01*
X101530730Y-55838782D01*
X101683130Y-55838782D02*
X101683130Y-55533982D01*
X101683130Y-55381582D02*
X101661358Y-55403354D01*
X101683130Y-55425125D01*
X101704901Y-55403354D01*
X101683130Y-55381582D01*
X101683130Y-55425125D01*
X101900844Y-55533982D02*
X101900844Y-55838782D01*
X101900844Y-55577525D02*
X101922615Y-55555754D01*
X101966158Y-55533982D01*
X102031472Y-55533982D01*
X102075015Y-55555754D01*
X102096787Y-55599296D01*
X102096787Y-55838782D01*
X102510444Y-55533982D02*
X102510444Y-55904096D01*
X102488672Y-55947639D01*
X102466901Y-55969411D01*
X102423358Y-55991182D01*
X102358044Y-55991182D01*
X102314501Y-55969411D01*
X102510444Y-55817011D02*
X102466901Y-55838782D01*
X102379815Y-55838782D01*
X102336272Y-55817011D01*
X102314501Y-55795239D01*
X102292730Y-55751696D01*
X102292730Y-55621068D01*
X102314501Y-55577525D01*
X102336272Y-55555754D01*
X102379815Y-55533982D01*
X102466901Y-55533982D01*
X102510444Y-55555754D01*
X102728158Y-55795239D02*
X102749930Y-55817011D01*
X102728158Y-55838782D01*
X102706387Y-55817011D01*
X102728158Y-55795239D01*
X102728158Y-55838782D01*
X102728158Y-55555754D02*
X102749930Y-55577525D01*
X102728158Y-55599296D01*
X102706387Y-55577525D01*
X102728158Y-55555754D01*
X102728158Y-55599296D01*
X99636615Y-56161217D02*
X99658387Y-56139446D01*
X99701930Y-56117674D01*
X99810787Y-56117674D01*
X99854330Y-56139446D01*
X99876101Y-56161217D01*
X99897872Y-56204760D01*
X99897872Y-56248303D01*
X99876101Y-56313617D01*
X99614844Y-56574874D01*
X99897872Y-56574874D01*
X100311530Y-56117674D02*
X100093815Y-56117674D01*
X100072044Y-56335388D01*
X100093815Y-56313617D01*
X100137358Y-56291846D01*
X100246215Y-56291846D01*
X100289758Y-56313617D01*
X100311530Y-56335388D01*
X100333301Y-56378931D01*
X100333301Y-56487788D01*
X100311530Y-56531331D01*
X100289758Y-56553103D01*
X100246215Y-56574874D01*
X100137358Y-56574874D01*
X100093815Y-56553103D01*
X100072044Y-56531331D01*
X100834044Y-56574874D02*
X101073530Y-56270074D01*
X100834044Y-56270074D02*
X101073530Y-56574874D01*
X101791987Y-56270074D02*
X101791987Y-56574874D01*
X101683130Y-56095903D02*
X101574272Y-56422474D01*
X101857301Y-56422474D01*
X102118558Y-56117674D02*
X102162101Y-56117674D01*
X102205644Y-56139446D01*
X102227415Y-56161217D01*
X102249187Y-56204760D01*
X102270958Y-56291846D01*
X102270958Y-56400703D01*
X102249187Y-56487788D01*
X102227415Y-56531331D01*
X102205644Y-56553103D01*
X102162101Y-56574874D01*
X102118558Y-56574874D01*
X102075015Y-56553103D01*
X102053244Y-56531331D01*
X102031472Y-56487788D01*
X102009701Y-56400703D01*
X102009701Y-56291846D01*
X102031472Y-56204760D01*
X102053244Y-56161217D01*
X102075015Y-56139446D01*
X102118558Y-56117674D01*
X102466901Y-56574874D02*
X102466901Y-56270074D01*
X102466901Y-56313617D02*
X102488672Y-56291846D01*
X102532215Y-56270074D01*
X102597530Y-56270074D01*
X102641072Y-56291846D01*
X102662844Y-56335388D01*
X102662844Y-56574874D01*
X102662844Y-56335388D02*
X102684615Y-56291846D01*
X102728158Y-56270074D01*
X102793472Y-56270074D01*
X102837015Y-56291846D01*
X102858787Y-56335388D01*
X102858787Y-56574874D01*
X103076501Y-56574874D02*
X103076501Y-56270074D01*
X103076501Y-56313617D02*
X103098272Y-56291846D01*
X103141815Y-56270074D01*
X103207130Y-56270074D01*
X103250672Y-56291846D01*
X103272444Y-56335388D01*
X103272444Y-56574874D01*
X103272444Y-56335388D02*
X103294215Y-56291846D01*
X103337758Y-56270074D01*
X103403072Y-56270074D01*
X103446615Y-56291846D01*
X103468387Y-56335388D01*
X103468387Y-56574874D01*
X104034444Y-56574874D02*
X104034444Y-56117674D01*
X104186844Y-56444246D01*
X104339244Y-56117674D01*
X104339244Y-56574874D01*
X104513415Y-56117674D02*
X104796444Y-56117674D01*
X104644044Y-56291846D01*
X104709358Y-56291846D01*
X104752901Y-56313617D01*
X104774672Y-56335388D01*
X104796444Y-56378931D01*
X104796444Y-56487788D01*
X104774672Y-56531331D01*
X104752901Y-56553103D01*
X104709358Y-56574874D01*
X104578730Y-56574874D01*
X104535187Y-56553103D01*
X104513415Y-56531331D01*
X109897882Y-91299208D02*
X109854340Y-91277436D01*
X109789025Y-91277436D01*
X109723711Y-91299208D01*
X109680168Y-91342750D01*
X109658397Y-91386293D01*
X109636625Y-91473379D01*
X109636625Y-91538693D01*
X109658397Y-91625779D01*
X109680168Y-91669322D01*
X109723711Y-91712865D01*
X109789025Y-91734636D01*
X109832568Y-91734636D01*
X109897882Y-91712865D01*
X109919654Y-91691093D01*
X109919654Y-91538693D01*
X109832568Y-91538693D01*
X110267997Y-91495150D02*
X110333311Y-91516922D01*
X110355082Y-91538693D01*
X110376854Y-91582236D01*
X110376854Y-91647550D01*
X110355082Y-91691093D01*
X110333311Y-91712865D01*
X110289768Y-91734636D01*
X110115597Y-91734636D01*
X110115597Y-91277436D01*
X110267997Y-91277436D01*
X110311540Y-91299208D01*
X110333311Y-91320979D01*
X110355082Y-91364522D01*
X110355082Y-91408065D01*
X110333311Y-91451608D01*
X110311540Y-91473379D01*
X110267997Y-91495150D01*
X110115597Y-91495150D01*
X110551025Y-91712865D02*
X110616340Y-91734636D01*
X110725197Y-91734636D01*
X110768740Y-91712865D01*
X110790511Y-91691093D01*
X110812282Y-91647550D01*
X110812282Y-91604008D01*
X110790511Y-91560465D01*
X110768740Y-91538693D01*
X110725197Y-91516922D01*
X110638111Y-91495150D01*
X110594568Y-91473379D01*
X110572797Y-91451608D01*
X110551025Y-91408065D01*
X110551025Y-91364522D01*
X110572797Y-91320979D01*
X110594568Y-91299208D01*
X110638111Y-91277436D01*
X110746968Y-91277436D01*
X110812282Y-91299208D01*
X111008225Y-91560465D02*
X111356568Y-91560465D01*
X111835540Y-91691093D02*
X111813768Y-91712865D01*
X111748454Y-91734636D01*
X111704911Y-91734636D01*
X111639597Y-91712865D01*
X111596054Y-91669322D01*
X111574282Y-91625779D01*
X111552511Y-91538693D01*
X111552511Y-91473379D01*
X111574282Y-91386293D01*
X111596054Y-91342750D01*
X111639597Y-91299208D01*
X111704911Y-91277436D01*
X111748454Y-91277436D01*
X111813768Y-91299208D01*
X111835540Y-91320979D01*
X112358054Y-91712865D02*
X112423368Y-91734636D01*
X112532225Y-91734636D01*
X112575768Y-91712865D01*
X112597540Y-91691093D01*
X112619311Y-91647550D01*
X112619311Y-91604008D01*
X112597540Y-91560465D01*
X112575768Y-91538693D01*
X112532225Y-91516922D01*
X112445140Y-91495150D01*
X112401597Y-91473379D01*
X112379825Y-91451608D01*
X112358054Y-91408065D01*
X112358054Y-91364522D01*
X112379825Y-91320979D01*
X112401597Y-91299208D01*
X112445140Y-91277436D01*
X112553997Y-91277436D01*
X112619311Y-91299208D01*
X112771711Y-91429836D02*
X112880568Y-91734636D01*
X112989425Y-91429836D02*
X112880568Y-91734636D01*
X112837025Y-91843493D01*
X112815254Y-91865265D01*
X112771711Y-91887036D01*
X113163597Y-91429836D02*
X113163597Y-91734636D01*
X113163597Y-91473379D02*
X113185368Y-91451608D01*
X113228911Y-91429836D01*
X113294225Y-91429836D01*
X113337768Y-91451608D01*
X113359540Y-91495150D01*
X113359540Y-91734636D01*
X113773197Y-91712865D02*
X113729654Y-91734636D01*
X113642568Y-91734636D01*
X113599025Y-91712865D01*
X113577254Y-91691093D01*
X113555482Y-91647550D01*
X113555482Y-91516922D01*
X113577254Y-91473379D01*
X113599025Y-91451608D01*
X113642568Y-91429836D01*
X113729654Y-91429836D01*
X113773197Y-91451608D01*
X114578740Y-91691093D02*
X114556968Y-91712865D01*
X114491654Y-91734636D01*
X114448111Y-91734636D01*
X114382797Y-91712865D01*
X114339254Y-91669322D01*
X114317482Y-91625779D01*
X114295711Y-91538693D01*
X114295711Y-91473379D01*
X114317482Y-91386293D01*
X114339254Y-91342750D01*
X114382797Y-91299208D01*
X114448111Y-91277436D01*
X114491654Y-91277436D01*
X114556968Y-91299208D01*
X114578740Y-91320979D01*
X114839997Y-91734636D02*
X114796454Y-91712865D01*
X114774682Y-91691093D01*
X114752911Y-91647550D01*
X114752911Y-91516922D01*
X114774682Y-91473379D01*
X114796454Y-91451608D01*
X114839997Y-91429836D01*
X114905311Y-91429836D01*
X114948854Y-91451608D01*
X114970625Y-91473379D01*
X114992397Y-91516922D01*
X114992397Y-91647550D01*
X114970625Y-91691093D01*
X114948854Y-91712865D01*
X114905311Y-91734636D01*
X114839997Y-91734636D01*
X115188340Y-91734636D02*
X115188340Y-91429836D01*
X115188340Y-91473379D02*
X115210111Y-91451608D01*
X115253654Y-91429836D01*
X115318968Y-91429836D01*
X115362511Y-91451608D01*
X115384282Y-91495150D01*
X115384282Y-91734636D01*
X115384282Y-91495150D02*
X115406054Y-91451608D01*
X115449597Y-91429836D01*
X115514911Y-91429836D01*
X115558454Y-91451608D01*
X115580225Y-91495150D01*
X115580225Y-91734636D01*
X115797940Y-91734636D02*
X115797940Y-91277436D01*
X115797940Y-91451608D02*
X115841482Y-91429836D01*
X115928568Y-91429836D01*
X115972111Y-91451608D01*
X115993882Y-91473379D01*
X116015654Y-91516922D01*
X116015654Y-91647550D01*
X115993882Y-91691093D01*
X115972111Y-91712865D01*
X115928568Y-91734636D01*
X115841482Y-91734636D01*
X115797940Y-91712865D01*
X116211597Y-91734636D02*
X116211597Y-91429836D01*
X116211597Y-91277436D02*
X116189825Y-91299208D01*
X116211597Y-91320979D01*
X116233368Y-91299208D01*
X116211597Y-91277436D01*
X116211597Y-91320979D01*
X116429311Y-91429836D02*
X116429311Y-91734636D01*
X116429311Y-91473379D02*
X116451082Y-91451608D01*
X116494625Y-91429836D01*
X116559940Y-91429836D01*
X116603482Y-91451608D01*
X116625254Y-91495150D01*
X116625254Y-91734636D01*
X117017140Y-91712865D02*
X116973597Y-91734636D01*
X116886511Y-91734636D01*
X116842968Y-91712865D01*
X116821197Y-91669322D01*
X116821197Y-91495150D01*
X116842968Y-91451608D01*
X116886511Y-91429836D01*
X116973597Y-91429836D01*
X117017140Y-91451608D01*
X117038911Y-91495150D01*
X117038911Y-91538693D01*
X116821197Y-91582236D01*
X117234854Y-91734636D02*
X117234854Y-91429836D01*
X117234854Y-91516922D02*
X117256625Y-91473379D01*
X117278397Y-91451608D01*
X117321940Y-91429836D01*
X117365482Y-91429836D01*
X109614854Y-92165928D02*
X109723711Y-92470728D01*
X109832568Y-92165928D01*
X110246225Y-92470728D02*
X109984968Y-92470728D01*
X110115597Y-92470728D02*
X110115597Y-92013528D01*
X110072054Y-92078842D01*
X110028511Y-92122385D01*
X109984968Y-92144157D01*
X110442168Y-92427185D02*
X110463940Y-92448957D01*
X110442168Y-92470728D01*
X110420397Y-92448957D01*
X110442168Y-92427185D01*
X110442168Y-92470728D01*
X110616340Y-92013528D02*
X110899368Y-92013528D01*
X110746968Y-92187700D01*
X110812282Y-92187700D01*
X110855825Y-92209471D01*
X110877597Y-92231242D01*
X110899368Y-92274785D01*
X110899368Y-92383642D01*
X110877597Y-92427185D01*
X110855825Y-92448957D01*
X110812282Y-92470728D01*
X110681654Y-92470728D01*
X110638111Y-92448957D01*
X110616340Y-92427185D01*
X111639597Y-92448957D02*
X111596054Y-92470728D01*
X111508968Y-92470728D01*
X111465425Y-92448957D01*
X111443654Y-92427185D01*
X111421882Y-92383642D01*
X111421882Y-92253014D01*
X111443654Y-92209471D01*
X111465425Y-92187700D01*
X111508968Y-92165928D01*
X111596054Y-92165928D01*
X111639597Y-92187700D01*
X111835540Y-92427185D02*
X111857311Y-92448957D01*
X111835540Y-92470728D01*
X111813768Y-92448957D01*
X111835540Y-92427185D01*
X111835540Y-92470728D01*
X112488682Y-92013528D02*
X112532225Y-92013528D01*
X112575768Y-92035300D01*
X112597540Y-92057071D01*
X112619311Y-92100614D01*
X112641082Y-92187700D01*
X112641082Y-92296557D01*
X112619311Y-92383642D01*
X112597540Y-92427185D01*
X112575768Y-92448957D01*
X112532225Y-92470728D01*
X112488682Y-92470728D01*
X112445140Y-92448957D01*
X112423368Y-92427185D01*
X112401597Y-92383642D01*
X112379825Y-92296557D01*
X112379825Y-92187700D01*
X112401597Y-92100614D01*
X112423368Y-92057071D01*
X112445140Y-92035300D01*
X112488682Y-92013528D01*
X113076511Y-92470728D02*
X112815254Y-92470728D01*
X112945882Y-92470728D02*
X112945882Y-92013528D01*
X112902340Y-92078842D01*
X112858797Y-92122385D01*
X112815254Y-92144157D01*
X113599025Y-91991757D02*
X113207140Y-92579585D01*
X113729654Y-92057071D02*
X113751425Y-92035300D01*
X113794968Y-92013528D01*
X113903825Y-92013528D01*
X113947368Y-92035300D01*
X113969140Y-92057071D01*
X113990911Y-92100614D01*
X113990911Y-92144157D01*
X113969140Y-92209471D01*
X113707882Y-92470728D01*
X113990911Y-92470728D01*
X114273940Y-92013528D02*
X114317482Y-92013528D01*
X114361025Y-92035300D01*
X114382797Y-92057071D01*
X114404568Y-92100614D01*
X114426340Y-92187700D01*
X114426340Y-92296557D01*
X114404568Y-92383642D01*
X114382797Y-92427185D01*
X114361025Y-92448957D01*
X114317482Y-92470728D01*
X114273940Y-92470728D01*
X114230397Y-92448957D01*
X114208625Y-92427185D01*
X114186854Y-92383642D01*
X114165082Y-92296557D01*
X114165082Y-92187700D01*
X114186854Y-92100614D01*
X114208625Y-92057071D01*
X114230397Y-92035300D01*
X114273940Y-92013528D01*
X114600511Y-92057071D02*
X114622282Y-92035300D01*
X114665825Y-92013528D01*
X114774682Y-92013528D01*
X114818225Y-92035300D01*
X114839997Y-92057071D01*
X114861768Y-92100614D01*
X114861768Y-92144157D01*
X114839997Y-92209471D01*
X114578740Y-92470728D01*
X114861768Y-92470728D01*
X115035940Y-92057071D02*
X115057711Y-92035300D01*
X115101254Y-92013528D01*
X115210111Y-92013528D01*
X115253654Y-92035300D01*
X115275425Y-92057071D01*
X115297197Y-92100614D01*
X115297197Y-92144157D01*
X115275425Y-92209471D01*
X115014168Y-92470728D01*
X115297197Y-92470728D01*
X109658397Y-93206820D02*
X109658397Y-92749620D01*
X109767254Y-92749620D01*
X109832568Y-92771392D01*
X109876111Y-92814934D01*
X109897882Y-92858477D01*
X109919654Y-92945563D01*
X109919654Y-93010877D01*
X109897882Y-93097963D01*
X109876111Y-93141506D01*
X109832568Y-93185049D01*
X109767254Y-93206820D01*
X109658397Y-93206820D01*
X110289768Y-93185049D02*
X110246225Y-93206820D01*
X110159140Y-93206820D01*
X110115597Y-93185049D01*
X110093825Y-93141506D01*
X110093825Y-92967334D01*
X110115597Y-92923792D01*
X110159140Y-92902020D01*
X110246225Y-92902020D01*
X110289768Y-92923792D01*
X110311540Y-92967334D01*
X110311540Y-93010877D01*
X110093825Y-93054420D01*
X110485711Y-93185049D02*
X110529254Y-93206820D01*
X110616340Y-93206820D01*
X110659882Y-93185049D01*
X110681654Y-93141506D01*
X110681654Y-93119734D01*
X110659882Y-93076192D01*
X110616340Y-93054420D01*
X110551025Y-93054420D01*
X110507482Y-93032649D01*
X110485711Y-92989106D01*
X110485711Y-92967334D01*
X110507482Y-92923792D01*
X110551025Y-92902020D01*
X110616340Y-92902020D01*
X110659882Y-92923792D01*
X110877597Y-93206820D02*
X110877597Y-92902020D01*
X110877597Y-92749620D02*
X110855825Y-92771392D01*
X110877597Y-92793163D01*
X110899368Y-92771392D01*
X110877597Y-92749620D01*
X110877597Y-92793163D01*
X111291254Y-92902020D02*
X111291254Y-93272134D01*
X111269482Y-93315677D01*
X111247711Y-93337449D01*
X111204168Y-93359220D01*
X111138854Y-93359220D01*
X111095311Y-93337449D01*
X111291254Y-93185049D02*
X111247711Y-93206820D01*
X111160625Y-93206820D01*
X111117082Y-93185049D01*
X111095311Y-93163277D01*
X111073540Y-93119734D01*
X111073540Y-92989106D01*
X111095311Y-92945563D01*
X111117082Y-92923792D01*
X111160625Y-92902020D01*
X111247711Y-92902020D01*
X111291254Y-92923792D01*
X111508968Y-92902020D02*
X111508968Y-93206820D01*
X111508968Y-92945563D02*
X111530740Y-92923792D01*
X111574282Y-92902020D01*
X111639597Y-92902020D01*
X111683140Y-92923792D01*
X111704911Y-92967334D01*
X111704911Y-93206820D01*
X112270968Y-93206820D02*
X112270968Y-92749620D01*
X112270968Y-92923792D02*
X112314511Y-92902020D01*
X112401597Y-92902020D01*
X112445140Y-92923792D01*
X112466911Y-92945563D01*
X112488682Y-92989106D01*
X112488682Y-93119734D01*
X112466911Y-93163277D01*
X112445140Y-93185049D01*
X112401597Y-93206820D01*
X112314511Y-93206820D01*
X112270968Y-93185049D01*
X112641082Y-92902020D02*
X112749940Y-93206820D01*
X112858797Y-92902020D02*
X112749940Y-93206820D01*
X112706397Y-93315677D01*
X112684625Y-93337449D01*
X112641082Y-93359220D01*
X113359540Y-93185049D02*
X113424854Y-93206820D01*
X113533711Y-93206820D01*
X113577254Y-93185049D01*
X113599025Y-93163277D01*
X113620797Y-93119734D01*
X113620797Y-93076192D01*
X113599025Y-93032649D01*
X113577254Y-93010877D01*
X113533711Y-92989106D01*
X113446625Y-92967334D01*
X113403082Y-92945563D01*
X113381311Y-92923792D01*
X113359540Y-92880249D01*
X113359540Y-92836706D01*
X113381311Y-92793163D01*
X113403082Y-92771392D01*
X113446625Y-92749620D01*
X113555482Y-92749620D01*
X113620797Y-92771392D01*
X113882054Y-93206820D02*
X113838511Y-93185049D01*
X113816740Y-93163277D01*
X113794968Y-93119734D01*
X113794968Y-92989106D01*
X113816740Y-92945563D01*
X113838511Y-92923792D01*
X113882054Y-92902020D01*
X113947368Y-92902020D01*
X113990911Y-92923792D01*
X114012682Y-92945563D01*
X114034454Y-92989106D01*
X114034454Y-93119734D01*
X114012682Y-93163277D01*
X113990911Y-93185049D01*
X113947368Y-93206820D01*
X113882054Y-93206820D01*
X114165082Y-92902020D02*
X114339254Y-92902020D01*
X114230397Y-93206820D02*
X114230397Y-92814934D01*
X114252168Y-92771392D01*
X114295711Y-92749620D01*
X114339254Y-92749620D01*
X114426340Y-92902020D02*
X114600511Y-92902020D01*
X114491654Y-92749620D02*
X114491654Y-93141506D01*
X114513425Y-93185049D01*
X114556968Y-93206820D01*
X114600511Y-93206820D01*
X114948854Y-93206820D02*
X114948854Y-92749620D01*
X114948854Y-93185049D02*
X114905311Y-93206820D01*
X114818225Y-93206820D01*
X114774682Y-93185049D01*
X114752911Y-93163277D01*
X114731140Y-93119734D01*
X114731140Y-92989106D01*
X114752911Y-92945563D01*
X114774682Y-92923792D01*
X114818225Y-92902020D01*
X114905311Y-92902020D01*
X114948854Y-92923792D01*
X115166568Y-93206820D02*
X115166568Y-92902020D01*
X115166568Y-92989106D02*
X115188340Y-92945563D01*
X115210111Y-92923792D01*
X115253654Y-92902020D01*
X115297197Y-92902020D01*
X115449597Y-93206820D02*
X115449597Y-92902020D01*
X115449597Y-92749620D02*
X115427825Y-92771392D01*
X115449597Y-92793163D01*
X115471368Y-92771392D01*
X115449597Y-92749620D01*
X115449597Y-92793163D01*
X115667311Y-92902020D02*
X115667311Y-93206820D01*
X115667311Y-92945563D02*
X115689082Y-92923792D01*
X115732625Y-92902020D01*
X115797940Y-92902020D01*
X115841482Y-92923792D01*
X115863254Y-92967334D01*
X115863254Y-93206820D01*
X116080968Y-93206820D02*
X116080968Y-92749620D01*
X116124511Y-93032649D02*
X116255140Y-93206820D01*
X116255140Y-92902020D02*
X116080968Y-93076192D01*
X117038911Y-93206820D02*
X116777654Y-93206820D01*
X116908282Y-93206820D02*
X116908282Y-92749620D01*
X116864740Y-92814934D01*
X116821197Y-92858477D01*
X116777654Y-92880249D01*
X117474340Y-93206820D02*
X117213082Y-93206820D01*
X117343711Y-93206820D02*
X117343711Y-92749620D01*
X117300168Y-92814934D01*
X117256625Y-92858477D01*
X117213082Y-92880249D01*
X117626740Y-92749620D02*
X117931540Y-92749620D01*
X117735597Y-93206820D01*
X109658397Y-93942912D02*
X109658397Y-93485712D01*
X109767254Y-93485712D01*
X109832568Y-93507484D01*
X109876111Y-93551026D01*
X109897882Y-93594569D01*
X109919654Y-93681655D01*
X109919654Y-93746969D01*
X109897882Y-93834055D01*
X109876111Y-93877598D01*
X109832568Y-93921141D01*
X109767254Y-93942912D01*
X109658397Y-93942912D01*
X110289768Y-93921141D02*
X110246225Y-93942912D01*
X110159140Y-93942912D01*
X110115597Y-93921141D01*
X110093825Y-93877598D01*
X110093825Y-93703426D01*
X110115597Y-93659884D01*
X110159140Y-93638112D01*
X110246225Y-93638112D01*
X110289768Y-93659884D01*
X110311540Y-93703426D01*
X110311540Y-93746969D01*
X110093825Y-93790512D01*
X110442168Y-93638112D02*
X110616340Y-93638112D01*
X110507482Y-93485712D02*
X110507482Y-93877598D01*
X110529254Y-93921141D01*
X110572797Y-93942912D01*
X110616340Y-93942912D01*
X110964682Y-93942912D02*
X110964682Y-93703426D01*
X110942911Y-93659884D01*
X110899368Y-93638112D01*
X110812282Y-93638112D01*
X110768740Y-93659884D01*
X110964682Y-93921141D02*
X110921140Y-93942912D01*
X110812282Y-93942912D01*
X110768740Y-93921141D01*
X110746968Y-93877598D01*
X110746968Y-93834055D01*
X110768740Y-93790512D01*
X110812282Y-93768741D01*
X110921140Y-93768741D01*
X110964682Y-93746969D01*
X111182397Y-93942912D02*
X111182397Y-93638112D01*
X111182397Y-93485712D02*
X111160625Y-93507484D01*
X111182397Y-93529255D01*
X111204168Y-93507484D01*
X111182397Y-93485712D01*
X111182397Y-93529255D01*
X111465425Y-93942912D02*
X111421882Y-93921141D01*
X111400111Y-93877598D01*
X111400111Y-93485712D01*
X111617825Y-93921141D02*
X111661368Y-93942912D01*
X111748454Y-93942912D01*
X111791997Y-93921141D01*
X111813768Y-93877598D01*
X111813768Y-93855826D01*
X111791997Y-93812284D01*
X111748454Y-93790512D01*
X111683140Y-93790512D01*
X111639597Y-93768741D01*
X111617825Y-93725198D01*
X111617825Y-93703426D01*
X111639597Y-93659884D01*
X111683140Y-93638112D01*
X111748454Y-93638112D01*
X111791997Y-93659884D01*
X112423368Y-93942912D02*
X112379825Y-93921141D01*
X112358054Y-93899369D01*
X112336282Y-93855826D01*
X112336282Y-93725198D01*
X112358054Y-93681655D01*
X112379825Y-93659884D01*
X112423368Y-93638112D01*
X112488682Y-93638112D01*
X112532225Y-93659884D01*
X112553997Y-93681655D01*
X112575768Y-93725198D01*
X112575768Y-93855826D01*
X112553997Y-93899369D01*
X112532225Y-93921141D01*
X112488682Y-93942912D01*
X112423368Y-93942912D01*
X112771711Y-93638112D02*
X112771711Y-93942912D01*
X112771711Y-93681655D02*
X112793482Y-93659884D01*
X112837025Y-93638112D01*
X112902340Y-93638112D01*
X112945882Y-93659884D01*
X112967654Y-93703426D01*
X112967654Y-93942912D01*
X113773197Y-93507484D02*
X113729654Y-93485712D01*
X113664340Y-93485712D01*
X113599025Y-93507484D01*
X113555482Y-93551026D01*
X113533711Y-93594569D01*
X113511940Y-93681655D01*
X113511940Y-93746969D01*
X113533711Y-93834055D01*
X113555482Y-93877598D01*
X113599025Y-93921141D01*
X113664340Y-93942912D01*
X113707882Y-93942912D01*
X113773197Y-93921141D01*
X113794968Y-93899369D01*
X113794968Y-93746969D01*
X113707882Y-93746969D01*
X113990911Y-93942912D02*
X113990911Y-93638112D01*
X113990911Y-93485712D02*
X113969140Y-93507484D01*
X113990911Y-93529255D01*
X114012682Y-93507484D01*
X113990911Y-93485712D01*
X113990911Y-93529255D01*
X114143311Y-93638112D02*
X114317482Y-93638112D01*
X114208625Y-93485712D02*
X114208625Y-93877598D01*
X114230397Y-93921141D01*
X114273940Y-93942912D01*
X114317482Y-93942912D01*
X114469882Y-93942912D02*
X114469882Y-93485712D01*
X114665825Y-93942912D02*
X114665825Y-93703426D01*
X114644054Y-93659884D01*
X114600511Y-93638112D01*
X114535197Y-93638112D01*
X114491654Y-93659884D01*
X114469882Y-93681655D01*
X115079482Y-93638112D02*
X115079482Y-93942912D01*
X114883540Y-93638112D02*
X114883540Y-93877598D01*
X114905311Y-93921141D01*
X114948854Y-93942912D01*
X115014168Y-93942912D01*
X115057711Y-93921141D01*
X115079482Y-93899369D01*
X115297197Y-93942912D02*
X115297197Y-93485712D01*
X115297197Y-93659884D02*
X115340740Y-93638112D01*
X115427825Y-93638112D01*
X115471368Y-93659884D01*
X115493140Y-93681655D01*
X115514911Y-93725198D01*
X115514911Y-93855826D01*
X115493140Y-93899369D01*
X115471368Y-93921141D01*
X115427825Y-93942912D01*
X115340740Y-93942912D01*
X115297197Y-93921141D01*
X115710854Y-93899369D02*
X115732625Y-93921141D01*
X115710854Y-93942912D01*
X115689082Y-93921141D01*
X115710854Y-93899369D01*
X115710854Y-93942912D01*
X115710854Y-93659884D02*
X115732625Y-93681655D01*
X115710854Y-93703426D01*
X115689082Y-93681655D01*
X115710854Y-93659884D01*
X115710854Y-93703426D01*
X109636625Y-94657233D02*
X109701940Y-94679004D01*
X109810797Y-94679004D01*
X109854340Y-94657233D01*
X109876111Y-94635461D01*
X109897882Y-94591918D01*
X109897882Y-94548376D01*
X109876111Y-94504833D01*
X109854340Y-94483061D01*
X109810797Y-94461290D01*
X109723711Y-94439518D01*
X109680168Y-94417747D01*
X109658397Y-94395976D01*
X109636625Y-94352433D01*
X109636625Y-94308890D01*
X109658397Y-94265347D01*
X109680168Y-94243576D01*
X109723711Y-94221804D01*
X109832568Y-94221804D01*
X109897882Y-94243576D01*
X110159140Y-94679004D02*
X110115597Y-94657233D01*
X110093825Y-94635461D01*
X110072054Y-94591918D01*
X110072054Y-94461290D01*
X110093825Y-94417747D01*
X110115597Y-94395976D01*
X110159140Y-94374204D01*
X110224454Y-94374204D01*
X110267997Y-94395976D01*
X110289768Y-94417747D01*
X110311540Y-94461290D01*
X110311540Y-94591918D01*
X110289768Y-94635461D01*
X110267997Y-94657233D01*
X110224454Y-94679004D01*
X110159140Y-94679004D01*
X110442168Y-94374204D02*
X110616340Y-94374204D01*
X110507482Y-94679004D02*
X110507482Y-94287118D01*
X110529254Y-94243576D01*
X110572797Y-94221804D01*
X110616340Y-94221804D01*
X110703425Y-94374204D02*
X110877597Y-94374204D01*
X110768740Y-94221804D02*
X110768740Y-94613690D01*
X110790511Y-94657233D01*
X110834054Y-94679004D01*
X110877597Y-94679004D01*
X111225940Y-94679004D02*
X111225940Y-94221804D01*
X111225940Y-94657233D02*
X111182397Y-94679004D01*
X111095311Y-94679004D01*
X111051768Y-94657233D01*
X111029997Y-94635461D01*
X111008225Y-94591918D01*
X111008225Y-94461290D01*
X111029997Y-94417747D01*
X111051768Y-94395976D01*
X111095311Y-94374204D01*
X111182397Y-94374204D01*
X111225940Y-94395976D01*
X111443654Y-94679004D02*
X111443654Y-94374204D01*
X111443654Y-94461290D02*
X111465425Y-94417747D01*
X111487197Y-94395976D01*
X111530740Y-94374204D01*
X111574282Y-94374204D01*
X111726682Y-94679004D02*
X111726682Y-94374204D01*
X111726682Y-94221804D02*
X111704911Y-94243576D01*
X111726682Y-94265347D01*
X111748454Y-94243576D01*
X111726682Y-94221804D01*
X111726682Y-94265347D01*
X111944397Y-94374204D02*
X111944397Y-94679004D01*
X111944397Y-94417747D02*
X111966168Y-94395976D01*
X112009711Y-94374204D01*
X112075025Y-94374204D01*
X112118568Y-94395976D01*
X112140340Y-94439518D01*
X112140340Y-94679004D01*
X112358054Y-94679004D02*
X112358054Y-94221804D01*
X112401597Y-94504833D02*
X112532225Y-94679004D01*
X112532225Y-94374204D02*
X112358054Y-94548376D01*
X112967654Y-94679004D02*
X112706397Y-94679004D01*
X112837025Y-94679004D02*
X112837025Y-94221804D01*
X112793482Y-94287118D01*
X112749940Y-94330661D01*
X112706397Y-94352433D01*
X113403082Y-94679004D02*
X113141825Y-94679004D01*
X113272454Y-94679004D02*
X113272454Y-94221804D01*
X113228911Y-94287118D01*
X113185368Y-94330661D01*
X113141825Y-94352433D01*
X113555482Y-94221804D02*
X113860282Y-94221804D01*
X113664340Y-94679004D01*
X114361025Y-94200033D02*
X113969140Y-94787861D01*
X114709368Y-94374204D02*
X114709368Y-94744318D01*
X114687597Y-94787861D01*
X114665825Y-94809633D01*
X114622282Y-94831404D01*
X114556968Y-94831404D01*
X114513425Y-94809633D01*
X114709368Y-94657233D02*
X114665825Y-94679004D01*
X114578740Y-94679004D01*
X114535197Y-94657233D01*
X114513425Y-94635461D01*
X114491654Y-94591918D01*
X114491654Y-94461290D01*
X114513425Y-94417747D01*
X114535197Y-94395976D01*
X114578740Y-94374204D01*
X114665825Y-94374204D01*
X114709368Y-94395976D01*
X114927082Y-94679004D02*
X114927082Y-94221804D01*
X114927082Y-94395976D02*
X114970625Y-94374204D01*
X115057711Y-94374204D01*
X115101254Y-94395976D01*
X115123025Y-94417747D01*
X115144797Y-94461290D01*
X115144797Y-94591918D01*
X115123025Y-94635461D01*
X115101254Y-94657233D01*
X115057711Y-94679004D01*
X114970625Y-94679004D01*
X114927082Y-94657233D01*
X115318968Y-94657233D02*
X115362511Y-94679004D01*
X115449597Y-94679004D01*
X115493140Y-94657233D01*
X115514911Y-94613690D01*
X115514911Y-94591918D01*
X115493140Y-94548376D01*
X115449597Y-94526604D01*
X115384282Y-94526604D01*
X115340740Y-94504833D01*
X115318968Y-94461290D01*
X115318968Y-94439518D01*
X115340740Y-94395976D01*
X115384282Y-94374204D01*
X115449597Y-94374204D01*
X115493140Y-94395976D01*
X115906797Y-94657233D02*
X115863254Y-94679004D01*
X115776168Y-94679004D01*
X115732625Y-94657233D01*
X115710854Y-94635461D01*
X115689082Y-94591918D01*
X115689082Y-94461290D01*
X115710854Y-94417747D01*
X115732625Y-94395976D01*
X115776168Y-94374204D01*
X115863254Y-94374204D01*
X115906797Y-94395976D01*
X116102740Y-94504833D02*
X116451082Y-94504833D01*
X116647025Y-94657233D02*
X116690568Y-94679004D01*
X116777654Y-94679004D01*
X116821197Y-94657233D01*
X116842968Y-94613690D01*
X116842968Y-94591918D01*
X116821197Y-94548376D01*
X116777654Y-94526604D01*
X116712340Y-94526604D01*
X116668797Y-94504833D01*
X116647025Y-94461290D01*
X116647025Y-94439518D01*
X116668797Y-94395976D01*
X116712340Y-94374204D01*
X116777654Y-94374204D01*
X116821197Y-94395976D01*
X116995368Y-94374204D02*
X117104225Y-94679004D01*
X117213082Y-94374204D02*
X117104225Y-94679004D01*
X117060682Y-94787861D01*
X117038911Y-94809633D01*
X116995368Y-94831404D01*
X117387254Y-94374204D02*
X117387254Y-94679004D01*
X117387254Y-94417747D02*
X117409025Y-94395976D01*
X117452568Y-94374204D01*
X117517882Y-94374204D01*
X117561425Y-94395976D01*
X117583197Y-94439518D01*
X117583197Y-94679004D01*
X117996854Y-94657233D02*
X117953311Y-94679004D01*
X117866225Y-94679004D01*
X117822682Y-94657233D01*
X117800911Y-94635461D01*
X117779140Y-94591918D01*
X117779140Y-94461290D01*
X117800911Y-94417747D01*
X117822682Y-94395976D01*
X117866225Y-94374204D01*
X117953311Y-94374204D01*
X117996854Y-94395976D01*
X118192797Y-94504833D02*
X118541140Y-94504833D01*
X118954797Y-94657233D02*
X118911254Y-94679004D01*
X118824168Y-94679004D01*
X118780625Y-94657233D01*
X118758854Y-94635461D01*
X118737082Y-94591918D01*
X118737082Y-94461290D01*
X118758854Y-94417747D01*
X118780625Y-94395976D01*
X118824168Y-94374204D01*
X118911254Y-94374204D01*
X118954797Y-94395976D01*
X119216054Y-94679004D02*
X119172511Y-94657233D01*
X119150740Y-94635461D01*
X119128968Y-94591918D01*
X119128968Y-94461290D01*
X119150740Y-94417747D01*
X119172511Y-94395976D01*
X119216054Y-94374204D01*
X119281368Y-94374204D01*
X119324911Y-94395976D01*
X119346682Y-94417747D01*
X119368454Y-94461290D01*
X119368454Y-94591918D01*
X119346682Y-94635461D01*
X119324911Y-94657233D01*
X119281368Y-94679004D01*
X119216054Y-94679004D01*
X119564397Y-94679004D02*
X119564397Y-94374204D01*
X119564397Y-94417747D02*
X119586168Y-94395976D01*
X119629711Y-94374204D01*
X119695025Y-94374204D01*
X119738568Y-94395976D01*
X119760340Y-94439518D01*
X119760340Y-94679004D01*
X119760340Y-94439518D02*
X119782111Y-94395976D01*
X119825654Y-94374204D01*
X119890968Y-94374204D01*
X119934511Y-94395976D01*
X119956282Y-94439518D01*
X119956282Y-94679004D01*
X120173997Y-94679004D02*
X120173997Y-94221804D01*
X120173997Y-94395976D02*
X120217540Y-94374204D01*
X120304625Y-94374204D01*
X120348168Y-94395976D01*
X120369940Y-94417747D01*
X120391711Y-94461290D01*
X120391711Y-94591918D01*
X120369940Y-94635461D01*
X120348168Y-94657233D01*
X120304625Y-94679004D01*
X120217540Y-94679004D01*
X120173997Y-94657233D01*
X120587654Y-94679004D02*
X120587654Y-94374204D01*
X120587654Y-94221804D02*
X120565882Y-94243576D01*
X120587654Y-94265347D01*
X120609425Y-94243576D01*
X120587654Y-94221804D01*
X120587654Y-94265347D01*
X120805368Y-94374204D02*
X120805368Y-94679004D01*
X120805368Y-94417747D02*
X120827140Y-94395976D01*
X120870682Y-94374204D01*
X120935997Y-94374204D01*
X120979540Y-94395976D01*
X121001311Y-94439518D01*
X121001311Y-94679004D01*
X121393197Y-94657233D02*
X121349654Y-94679004D01*
X121262568Y-94679004D01*
X121219025Y-94657233D01*
X121197254Y-94613690D01*
X121197254Y-94439518D01*
X121219025Y-94395976D01*
X121262568Y-94374204D01*
X121349654Y-94374204D01*
X121393197Y-94395976D01*
X121414968Y-94439518D01*
X121414968Y-94483061D01*
X121197254Y-94526604D01*
X121610911Y-94679004D02*
X121610911Y-94374204D01*
X121610911Y-94461290D02*
X121632682Y-94417747D01*
X121654454Y-94395976D01*
X121697997Y-94374204D01*
X121741540Y-94374204D01*
D10*
X114594714Y-88126714D02*
X113832714Y-88126714D01*
X113832714Y-87836428D01*
X113869000Y-87763857D01*
X113905285Y-87727571D01*
X113977857Y-87691285D01*
X114086714Y-87691285D01*
X114159285Y-87727571D01*
X114195571Y-87763857D01*
X114231857Y-87836428D01*
X114231857Y-88126714D01*
X114594714Y-87255857D02*
X114558428Y-87328428D01*
X114522142Y-87364714D01*
X114449571Y-87401000D01*
X114231857Y-87401000D01*
X114159285Y-87364714D01*
X114123000Y-87328428D01*
X114086714Y-87255857D01*
X114086714Y-87147000D01*
X114123000Y-87074428D01*
X114159285Y-87038142D01*
X114231857Y-87001857D01*
X114449571Y-87001857D01*
X114522142Y-87038142D01*
X114558428Y-87074428D01*
X114594714Y-87147000D01*
X114594714Y-87255857D01*
X114086714Y-86747857D02*
X114594714Y-86602714D01*
X114231857Y-86457571D01*
X114594714Y-86312428D01*
X114086714Y-86167285D01*
X114558428Y-85586714D02*
X114594714Y-85659285D01*
X114594714Y-85804428D01*
X114558428Y-85877000D01*
X114485857Y-85913285D01*
X114195571Y-85913285D01*
X114123000Y-85877000D01*
X114086714Y-85804428D01*
X114086714Y-85659285D01*
X114123000Y-85586714D01*
X114195571Y-85550428D01*
X114268142Y-85550428D01*
X114340714Y-85913285D01*
X114594714Y-85223857D02*
X114086714Y-85223857D01*
X114231857Y-85223857D02*
X114159285Y-85187571D01*
X114123000Y-85151285D01*
X114086714Y-85078714D01*
X114086714Y-85006142D01*
X114594714Y-84171571D02*
X113832714Y-84171571D01*
X114594714Y-83808714D02*
X113832714Y-83808714D01*
X114594714Y-83373285D01*
X113832714Y-83373285D01*
D12*
%TO.C,J2*%
X106726190Y-85916666D02*
X107083333Y-85916666D01*
X107154761Y-85940476D01*
X107202380Y-85988095D01*
X107226190Y-86059523D01*
X107226190Y-86107142D01*
X106773809Y-85702380D02*
X106750000Y-85678571D01*
X106726190Y-85630952D01*
X106726190Y-85511904D01*
X106750000Y-85464285D01*
X106773809Y-85440476D01*
X106821428Y-85416666D01*
X106869047Y-85416666D01*
X106940476Y-85440476D01*
X107226190Y-85726190D01*
X107226190Y-85416666D01*
%TO.C,J3*%
X106726190Y-67916666D02*
X107083333Y-67916666D01*
X107154761Y-67940476D01*
X107202380Y-67988095D01*
X107226190Y-68059523D01*
X107226190Y-68107142D01*
X106726190Y-67726190D02*
X106726190Y-67416666D01*
X106916666Y-67583333D01*
X106916666Y-67511904D01*
X106940476Y-67464285D01*
X106964285Y-67440476D01*
X107011904Y-67416666D01*
X107130952Y-67416666D01*
X107178571Y-67440476D01*
X107202380Y-67464285D01*
X107226190Y-67511904D01*
X107226190Y-67654761D01*
X107202380Y-67702380D01*
X107178571Y-67726190D01*
%TO.C,JP1*%
X108433333Y-55026190D02*
X108433333Y-55383333D01*
X108409523Y-55454761D01*
X108361904Y-55502380D01*
X108290476Y-55526190D01*
X108242857Y-55526190D01*
X108671428Y-55526190D02*
X108671428Y-55026190D01*
X108861904Y-55026190D01*
X108909523Y-55050000D01*
X108933333Y-55073809D01*
X108957142Y-55121428D01*
X108957142Y-55192857D01*
X108933333Y-55240476D01*
X108909523Y-55264285D01*
X108861904Y-55288095D01*
X108671428Y-55288095D01*
X109433333Y-55526190D02*
X109147619Y-55526190D01*
X109290476Y-55526190D02*
X109290476Y-55026190D01*
X109242857Y-55097619D01*
X109195238Y-55145238D01*
X109147619Y-55169047D01*
%TO.C,U1*%
X123429047Y-66726190D02*
X123429047Y-67130952D01*
X123452857Y-67178571D01*
X123476666Y-67202380D01*
X123524285Y-67226190D01*
X123619523Y-67226190D01*
X123667142Y-67202380D01*
X123690952Y-67178571D01*
X123714761Y-67130952D01*
X123714761Y-66726190D01*
X124214761Y-67226190D02*
X123929047Y-67226190D01*
X124071904Y-67226190D02*
X124071904Y-66726190D01*
X124024285Y-66797619D01*
X123976666Y-66845238D01*
X123929047Y-66869047D01*
%TO.C,R1*%
X122496666Y-60726190D02*
X122330000Y-60488095D01*
X122210952Y-60726190D02*
X122210952Y-60226190D01*
X122401428Y-60226190D01*
X122449047Y-60250000D01*
X122472857Y-60273809D01*
X122496666Y-60321428D01*
X122496666Y-60392857D01*
X122472857Y-60440476D01*
X122449047Y-60464285D01*
X122401428Y-60488095D01*
X122210952Y-60488095D01*
X122972857Y-60726190D02*
X122687142Y-60726190D01*
X122830000Y-60726190D02*
X122830000Y-60226190D01*
X122782380Y-60297619D01*
X122734761Y-60345238D01*
X122687142Y-60369047D01*
%TO.C,C1*%
X121166666Y-89728571D02*
X121142857Y-89752380D01*
X121071428Y-89776190D01*
X121023809Y-89776190D01*
X120952380Y-89752380D01*
X120904761Y-89704761D01*
X120880952Y-89657142D01*
X120857142Y-89561904D01*
X120857142Y-89490476D01*
X120880952Y-89395238D01*
X120904761Y-89347619D01*
X120952380Y-89300000D01*
X121023809Y-89276190D01*
X121071428Y-89276190D01*
X121142857Y-89300000D01*
X121166666Y-89323809D01*
X121642857Y-89776190D02*
X121357142Y-89776190D01*
X121500000Y-89776190D02*
X121500000Y-89276190D01*
X121452380Y-89347619D01*
X121404761Y-89395238D01*
X121357142Y-89419047D01*
%TO.C,J1*%
X106226190Y-73101666D02*
X106583333Y-73101666D01*
X106654761Y-73125476D01*
X106702380Y-73173095D01*
X106726190Y-73244523D01*
X106726190Y-73292142D01*
X106726190Y-72601666D02*
X106726190Y-72887380D01*
X106726190Y-72744523D02*
X106226190Y-72744523D01*
X106297619Y-72792142D01*
X106345238Y-72839761D01*
X106369047Y-72887380D01*
%TO.C,R3*%
X118726190Y-73583333D02*
X118488095Y-73750000D01*
X118726190Y-73869047D02*
X118226190Y-73869047D01*
X118226190Y-73678571D01*
X118250000Y-73630952D01*
X118273809Y-73607142D01*
X118321428Y-73583333D01*
X118392857Y-73583333D01*
X118440476Y-73607142D01*
X118464285Y-73630952D01*
X118488095Y-73678571D01*
X118488095Y-73869047D01*
X118226190Y-73416666D02*
X118226190Y-73107142D01*
X118416666Y-73273809D01*
X118416666Y-73202380D01*
X118440476Y-73154761D01*
X118464285Y-73130952D01*
X118511904Y-73107142D01*
X118630952Y-73107142D01*
X118678571Y-73130952D01*
X118702380Y-73154761D01*
X118726190Y-73202380D01*
X118726190Y-73345238D01*
X118702380Y-73392857D01*
X118678571Y-73416666D01*
%TO.C,R2*%
X122496666Y-64726190D02*
X122330000Y-64488095D01*
X122210952Y-64726190D02*
X122210952Y-64226190D01*
X122401428Y-64226190D01*
X122449047Y-64250000D01*
X122472857Y-64273809D01*
X122496666Y-64321428D01*
X122496666Y-64392857D01*
X122472857Y-64440476D01*
X122449047Y-64464285D01*
X122401428Y-64488095D01*
X122210952Y-64488095D01*
X122687142Y-64273809D02*
X122710952Y-64250000D01*
X122758571Y-64226190D01*
X122877619Y-64226190D01*
X122925238Y-64250000D01*
X122949047Y-64273809D01*
X122972857Y-64321428D01*
X122972857Y-64369047D01*
X122949047Y-64440476D01*
X122663333Y-64726190D01*
X122972857Y-64726190D01*
D13*
%TO.C,J2*%
X113510000Y-89560000D02*
X113510000Y-81940000D01*
X107550000Y-86250000D02*
X108300000Y-86250000D01*
X107250000Y-88600000D02*
X107250000Y-89850000D01*
X109800000Y-81950000D02*
X109800000Y-82700000D01*
X107250000Y-89850000D02*
X108500000Y-89850000D01*
X112750000Y-82700000D02*
X112750000Y-85750000D01*
X113510000Y-81940000D02*
X107540000Y-81940000D01*
X108300000Y-86250000D02*
X108300000Y-85250000D01*
X108300000Y-81950000D02*
X107550000Y-81950000D01*
X108300000Y-87750000D02*
X107550000Y-87750000D01*
X107550000Y-89550000D02*
X108300000Y-89550000D01*
X108300000Y-85250000D02*
X107550000Y-85250000D01*
X109800000Y-88800000D02*
X112750000Y-88800000D01*
X107550000Y-87750000D02*
X107550000Y-89550000D01*
X107550000Y-83750000D02*
X108300000Y-83750000D01*
X109800000Y-82700000D02*
X112750000Y-82700000D01*
X107540000Y-81940000D02*
X107540000Y-89560000D01*
X108300000Y-83750000D02*
X108300000Y-81950000D01*
X107550000Y-81950000D02*
X107550000Y-83750000D01*
X107540000Y-89560000D02*
X113510000Y-89560000D01*
X108300000Y-89550000D02*
X108300000Y-87750000D01*
X107550000Y-85250000D02*
X107550000Y-86250000D01*
X109800000Y-89550000D02*
X109800000Y-88800000D01*
X112750000Y-88800000D02*
X112750000Y-85750000D01*
%TO.C,J3*%
X107250000Y-79350000D02*
X108500000Y-79350000D01*
X107550000Y-58250000D02*
X108300000Y-58250000D01*
X108300000Y-79050000D02*
X108300000Y-77250000D01*
X107550000Y-59750000D02*
X107550000Y-75750000D01*
X107550000Y-56450000D02*
X107550000Y-58250000D01*
X107550000Y-79050000D02*
X108300000Y-79050000D01*
X108300000Y-59750000D02*
X107550000Y-59750000D01*
X113510000Y-56440000D02*
X107540000Y-56440000D01*
X107540000Y-79060000D02*
X113510000Y-79060000D01*
X109800000Y-79050000D02*
X109800000Y-78300000D01*
X112750000Y-78300000D02*
X112750000Y-67750000D01*
X107550000Y-75750000D02*
X108300000Y-75750000D01*
X108300000Y-77250000D02*
X107550000Y-77250000D01*
X108300000Y-75750000D02*
X108300000Y-59750000D01*
X113510000Y-79060000D02*
X113510000Y-56440000D01*
X108300000Y-56450000D02*
X107550000Y-56450000D01*
X107540000Y-56440000D02*
X107540000Y-79060000D01*
X112750000Y-57200000D02*
X112750000Y-67750000D01*
X109800000Y-56450000D02*
X109800000Y-57200000D01*
X109800000Y-78300000D02*
X112750000Y-78300000D01*
X108300000Y-58250000D02*
X108300000Y-56450000D01*
X109800000Y-57200000D02*
X112750000Y-57200000D01*
X107550000Y-77250000D02*
X107550000Y-79050000D01*
X107250000Y-78100000D02*
X107250000Y-79350000D01*
%TO.C,JP1*%
X107450000Y-52500000D02*
X110250000Y-52500000D01*
X107450000Y-54500000D02*
X107450000Y-52500000D01*
X110250000Y-52500000D02*
X110250000Y-54500000D01*
X110250000Y-54500000D02*
X107450000Y-54500000D01*
%TO.C,U1*%
X122810000Y-67670000D02*
X121160000Y-67670000D01*
X126460000Y-85570000D02*
X126460000Y-67670000D01*
X121160000Y-67670000D02*
X121160000Y-85570000D01*
X121160000Y-85570000D02*
X126460000Y-85570000D01*
X126460000Y-67670000D02*
X124810000Y-67670000D01*
X122810000Y-67670000D02*
G75*
G03*
X124810000Y-67670000I1000000J0D01*
G01*
%TO.C,R1*%
X119310000Y-59870000D02*
X125850000Y-59870000D01*
X126620000Y-58500000D02*
X125850000Y-58500000D01*
X119310000Y-57130000D02*
X119310000Y-59870000D01*
X125850000Y-59870000D02*
X125850000Y-57130000D01*
X125850000Y-57130000D02*
X119310000Y-57130000D01*
X118540000Y-58500000D02*
X119310000Y-58500000D01*
%TO.C,C1*%
X121879000Y-88420000D02*
X120621000Y-88420000D01*
X121879000Y-86580000D02*
X120621000Y-86580000D01*
%TO.C,J1*%
X97156660Y-57450000D02*
X105756660Y-57450000D01*
X105756660Y-88420000D02*
X97156660Y-88420000D01*
X105756660Y-57450000D02*
X105756660Y-88420000D01*
X106650998Y-77500000D02*
X106217985Y-77250000D01*
X106650998Y-77000000D02*
X106650998Y-77500000D01*
X106217985Y-77250000D02*
X106650998Y-77000000D01*
%TO.C,R3*%
X116500000Y-77620000D02*
X116500000Y-76850000D01*
X115130000Y-70310000D02*
X115130000Y-76850000D01*
X117870000Y-76850000D02*
X117870000Y-70310000D01*
X117870000Y-70310000D02*
X115130000Y-70310000D01*
X115130000Y-76850000D02*
X117870000Y-76850000D01*
X116500000Y-69540000D02*
X116500000Y-70310000D01*
%TO.C,R2*%
X119310000Y-61130000D02*
X119310000Y-63870000D01*
X125850000Y-63870000D02*
X125850000Y-61130000D01*
X125850000Y-61130000D02*
X119310000Y-61130000D01*
X118540000Y-62500000D02*
X119310000Y-62500000D01*
X126620000Y-62500000D02*
X125850000Y-62500000D01*
X119310000Y-63870000D02*
X125850000Y-63870000D01*
D14*
%TO.C,G\u002A\u002A\u002A*%
X109263889Y-91504223D02*
X105736112Y-91504223D01*
X105736112Y-91504223D02*
X105736112Y-91236112D01*
X105736112Y-91236112D02*
X109263889Y-91236112D01*
X109263889Y-91236112D02*
X109263889Y-91504223D01*
X109263889Y-91504223D02*
X109263889Y-91504223D01*
G36*
X109263889Y-91504223D02*
G01*
X105736112Y-91504223D01*
X105736112Y-91236112D01*
X109263889Y-91236112D01*
X109263889Y-91504223D01*
G37*
X109263889Y-91504223D02*
X105736112Y-91504223D01*
X105736112Y-91236112D01*
X109263889Y-91236112D01*
X109263889Y-91504223D01*
X107358889Y-92590778D02*
X107641112Y-92590778D01*
X107641112Y-92590778D02*
X107641112Y-91786445D01*
X107641112Y-91786445D02*
X109264019Y-91786445D01*
X109264019Y-91786445D02*
X109260426Y-93271639D01*
X109260426Y-93271639D02*
X109256834Y-94756834D01*
X109256834Y-94756834D02*
X107641112Y-94764120D01*
X107641112Y-94764120D02*
X107641112Y-93409223D01*
X107641112Y-93409223D02*
X107358889Y-93409223D01*
X107358889Y-93409223D02*
X107358889Y-94763889D01*
X107358889Y-94763889D02*
X106556908Y-94763889D01*
X106556908Y-94763889D02*
X106409042Y-94763728D01*
X106409042Y-94763728D02*
X106269678Y-94763265D01*
X106269678Y-94763265D02*
X106141361Y-94762528D01*
X106141361Y-94762528D02*
X106026636Y-94761549D01*
X106026636Y-94761549D02*
X105928048Y-94760355D01*
X105928048Y-94760355D02*
X105848143Y-94758977D01*
X105848143Y-94758977D02*
X105789465Y-94757444D01*
X105789465Y-94757444D02*
X105754561Y-94755786D01*
X105754561Y-94755786D02*
X105745519Y-94754482D01*
X105745519Y-94754482D02*
X105744235Y-94739375D01*
X105744235Y-94739375D02*
X105743003Y-94697907D01*
X105743003Y-94697907D02*
X105741834Y-94631939D01*
X105741834Y-94631939D02*
X105740741Y-94543330D01*
X105740741Y-94543330D02*
X105739735Y-94433943D01*
X105739735Y-94433943D02*
X105738827Y-94305638D01*
X105738827Y-94305638D02*
X105738030Y-94160275D01*
X105738030Y-94160275D02*
X105737355Y-93999716D01*
X105737355Y-93999716D02*
X105736814Y-93825821D01*
X105736814Y-93825821D02*
X105736419Y-93640451D01*
X105736419Y-93640451D02*
X105736181Y-93445468D01*
X105736181Y-93445468D02*
X105736112Y-93265760D01*
X105736112Y-93265760D02*
X105736112Y-92054556D01*
X105736112Y-92054556D02*
X106004223Y-92054556D01*
X106004223Y-92054556D02*
X106004223Y-93265760D01*
X106004223Y-93265760D02*
X106004330Y-93448200D01*
X106004330Y-93448200D02*
X106004641Y-93622517D01*
X106004641Y-93622517D02*
X106005139Y-93786651D01*
X106005139Y-93786651D02*
X106005810Y-93938540D01*
X106005810Y-93938540D02*
X106006637Y-94076126D01*
X106006637Y-94076126D02*
X106007603Y-94197347D01*
X106007603Y-94197347D02*
X106008695Y-94300143D01*
X106008695Y-94300143D02*
X106009894Y-94382454D01*
X106009894Y-94382454D02*
X106011186Y-94442220D01*
X106011186Y-94442220D02*
X106012555Y-94477380D01*
X106012555Y-94477380D02*
X106013630Y-94486371D01*
X106013630Y-94486371D02*
X106031016Y-94490476D01*
X106031016Y-94490476D02*
X106069836Y-94493673D01*
X106069836Y-94493673D02*
X106123303Y-94495510D01*
X106123303Y-94495510D02*
X106154741Y-94495778D01*
X106154741Y-94495778D02*
X106286445Y-94495778D01*
X106286445Y-94495778D02*
X106286445Y-93141112D01*
X106286445Y-93141112D02*
X108713282Y-93141112D01*
X108713282Y-93141112D02*
X108716947Y-93814917D01*
X108716947Y-93814917D02*
X108720612Y-94488723D01*
X108720612Y-94488723D02*
X108988723Y-94488723D01*
X108988723Y-94488723D02*
X108992329Y-93271639D01*
X108992329Y-93271639D02*
X108995935Y-92054556D01*
X108995935Y-92054556D02*
X108713556Y-92054556D01*
X108713556Y-92054556D02*
X108713556Y-92858889D01*
X108713556Y-92858889D02*
X106286445Y-92858889D01*
X106286445Y-92858889D02*
X106286445Y-92054556D01*
X106286445Y-92054556D02*
X106004223Y-92054556D01*
X106004223Y-92054556D02*
X105736112Y-92054556D01*
X105736112Y-92054556D02*
X105736112Y-91786445D01*
X105736112Y-91786445D02*
X107358889Y-91786445D01*
X107358889Y-91786445D02*
X107358889Y-92590778D01*
X107358889Y-92590778D02*
X107358889Y-92590778D01*
G36*
X107358889Y-91786445D02*
G01*
X107358889Y-92590778D01*
X107641112Y-92590778D01*
X107641112Y-91786445D01*
X109264019Y-91786445D01*
X109260426Y-93271639D01*
X109256834Y-94756834D01*
X107641112Y-94764120D01*
X107641112Y-93409223D01*
X107358889Y-93409223D01*
X107358889Y-94763889D01*
X106556908Y-94763889D01*
X106409042Y-94763728D01*
X106269678Y-94763265D01*
X106141361Y-94762528D01*
X106026636Y-94761549D01*
X105928048Y-94760355D01*
X105848143Y-94758977D01*
X105789465Y-94757444D01*
X105754561Y-94755786D01*
X105745519Y-94754482D01*
X105744235Y-94739375D01*
X105743003Y-94697907D01*
X105741834Y-94631939D01*
X105740741Y-94543330D01*
X105739735Y-94433943D01*
X105738827Y-94305638D01*
X105738030Y-94160275D01*
X105737355Y-93999716D01*
X105736814Y-93825821D01*
X105736419Y-93640451D01*
X105736181Y-93445468D01*
X105736112Y-93265760D01*
X106004223Y-93265760D01*
X106004330Y-93448200D01*
X106004641Y-93622517D01*
X106005139Y-93786651D01*
X106005810Y-93938540D01*
X106006637Y-94076126D01*
X106007603Y-94197347D01*
X106008695Y-94300143D01*
X106009894Y-94382454D01*
X106011186Y-94442220D01*
X106012555Y-94477380D01*
X106013630Y-94486371D01*
X106031016Y-94490476D01*
X106069836Y-94493673D01*
X106123303Y-94495510D01*
X106154741Y-94495778D01*
X106286445Y-94495778D01*
X106286445Y-93141112D01*
X108713282Y-93141112D01*
X108716947Y-93814917D01*
X108720612Y-94488723D01*
X108988723Y-94488723D01*
X108992329Y-93271639D01*
X108995935Y-92054556D01*
X108713556Y-92054556D01*
X108713556Y-92858889D01*
X106286445Y-92858889D01*
X106286445Y-92054556D01*
X106004223Y-92054556D01*
X106004223Y-93265760D01*
X105736112Y-93265760D01*
X105736112Y-91786445D01*
X107358889Y-91786445D01*
G37*
X107358889Y-91786445D02*
X107358889Y-92590778D01*
X107641112Y-92590778D01*
X107641112Y-91786445D01*
X109264019Y-91786445D01*
X109260426Y-93271639D01*
X109256834Y-94756834D01*
X107641112Y-94764120D01*
X107641112Y-93409223D01*
X107358889Y-93409223D01*
X107358889Y-94763889D01*
X106556908Y-94763889D01*
X106409042Y-94763728D01*
X106269678Y-94763265D01*
X106141361Y-94762528D01*
X106026636Y-94761549D01*
X105928048Y-94760355D01*
X105848143Y-94758977D01*
X105789465Y-94757444D01*
X105754561Y-94755786D01*
X105745519Y-94754482D01*
X105744235Y-94739375D01*
X105743003Y-94697907D01*
X105741834Y-94631939D01*
X105740741Y-94543330D01*
X105739735Y-94433943D01*
X105738827Y-94305638D01*
X105738030Y-94160275D01*
X105737355Y-93999716D01*
X105736814Y-93825821D01*
X105736419Y-93640451D01*
X105736181Y-93445468D01*
X105736112Y-93265760D01*
X106004223Y-93265760D01*
X106004330Y-93448200D01*
X106004641Y-93622517D01*
X106005139Y-93786651D01*
X106005810Y-93938540D01*
X106006637Y-94076126D01*
X106007603Y-94197347D01*
X106008695Y-94300143D01*
X106009894Y-94382454D01*
X106011186Y-94442220D01*
X106012555Y-94477380D01*
X106013630Y-94486371D01*
X106031016Y-94490476D01*
X106069836Y-94493673D01*
X106123303Y-94495510D01*
X106154741Y-94495778D01*
X106286445Y-94495778D01*
X106286445Y-93141112D01*
X108713282Y-93141112D01*
X108716947Y-93814917D01*
X108720612Y-94488723D01*
X108988723Y-94488723D01*
X108992329Y-93271639D01*
X108995935Y-92054556D01*
X108713556Y-92054556D01*
X108713556Y-92858889D01*
X106286445Y-92858889D01*
X106286445Y-92054556D01*
X106004223Y-92054556D01*
X106004223Y-93265760D01*
X105736112Y-93265760D01*
X105736112Y-91786445D01*
X107358889Y-91786445D01*
%TD*%
M02*
